<svg xmlns="http://www.w3.org/2000/svg" viewBox="0 0 236.19 236.19"><defs><style>.cls-1{fill:#fff;}</style></defs><title>cms_wht</title><g id="Layer_2" data-name="Layer 2"><g id="Layer_1-2" data-name="Layer 1"><path class="cls-1" d="M34.28,72.38a3.81,3.81,0,1,1-3.8-3.81,3.81,3.81,0,0,1,3.8,3.81Z"/><path class="cls-1" d="M49.52,72.38a3.81,3.81,0,1,1-3.81-3.81,3.81,3.81,0,0,1,3.81,3.81Z"/><path class="cls-1" d="M64.76,72.38A3.81,3.81,0,1,1,61,68.57a3.81,3.81,0,0,1,3.81,3.81Z"/><path class="cls-1" d="M26.67,209.52h49l-49-46.15ZM34.28,181,56.49,201.9H34.28Z"/><path class="cls-1" d="M236.19,22.85V0H213.34V7.62h-76.2V0H114.29V22.85h22.85V15.24H150a45.68,45.68,0,0,0-20.5,38.09H22.86A11.45,11.45,0,0,0,11.43,64.76v47.72c-3.47-2.93-6.38-2.22-7.5-1.73S0,113,0,118.09V224.76a11.45,11.45,0,0,0,11.43,11.43H125.71c5,0,6.71-2.47,7.3-3.94s1-4.45-2.62-7.86L126.75,221h98a11.45,11.45,0,0,0,11.43-11.43V64.76a11.45,11.45,0,0,0-11.43-11.43H221a45.68,45.68,0,0,0-20.5-38.09h12.88v7.61ZM221,7.62h7.62v7.62H221Zm-91.43,7.62h-7.61V7.62h7.61ZM19.05,64.76A3.82,3.82,0,0,1,22.86,61H130.18s0,0,.07.06a45.2,45.2,0,0,0,11,22.8H19.05ZM11.43,228.57a3.82,3.82,0,0,1-3.81-3.81V221h7.62v-7.62H7.62v-7.62h7.62v-7.62H7.62v-7.61h7.62v-7.63H7.62v-7.61h7.62v-7.62H7.62V160h7.62v-7.62H7.62v-7.62h7.62v-7.62H7.62V119.29L47.48,156.8,59,167.62l64.76,60.95Zm22.85-94.64V106.67H118.1V160H62Zm194.29,75.6a3.81,3.81,0,0,1-3.81,3.8H118.66L70.09,167.62h55.62V99.05h-99v27.7l-7.62-7.16V91.43H150.19c.74.48,1.42,1,2.19,1.46v4.3a9.51,9.51,0,0,0-3.81,7.57,9.37,9.37,0,0,0,2,5.71,9.39,9.39,0,0,0-2,5.72,9.53,9.53,0,0,0,9.52,9.52h34.29a9.54,9.54,0,0,0,9.53-9.52,9.41,9.41,0,0,0-2-5.71,9.38,9.38,0,0,0-1.86-13.29v-4.3c.77-.44,1.46-1,2.19-1.46h28.29ZM158.1,114.28h34.28a1.91,1.91,0,0,1,0,3.81H158.1a1.91,1.91,0,1,1,0-3.81Zm-1.91-9.52a1.91,1.91,0,0,1,1.91-1.91h34.28a1.91,1.91,0,0,1,0,3.81H158.1a1.89,1.89,0,0,1-1.91-1.9ZM220.3,61h4.46a3.82,3.82,0,0,1,3.81,3.81v19H209.19a45.28,45.28,0,0,0,10.93-22.27,2,2,0,0,0,.18-.59Zm-7-7.62a38,38,0,0,1-20.79,33.9l-2.07,1.07v6.94H179.05V68a15.24,15.24,0,1,0-7.62,0V95.24H160V88.3l-2.07-1.07a38.08,38.08,0,1,1,55.41-33.9ZM175.24,61a7.62,7.62,0,1,1,7.62-7.62A7.62,7.62,0,0,1,175.24,61Z"/><rect class="cls-1" x="133.34" y="137.14" width="87.62" height="7.62"/><rect class="cls-1" x="133.34" y="152.38" width="87.62" height="7.62"/><rect class="cls-1" x="133.34" y="167.62" width="87.62" height="7.62"/><rect class="cls-1" x="133.34" y="182.85" width="87.62" height="7.62"/></g></g></svg>