<svg id="Coverage" xmlns="http://www.w3.org/2000/svg" xmlns:xlink="http://www.w3.org/1999/xlink" viewBox="0 0 736 563"><defs><style>.cls-1{fill:none;}.cls-2{clip-path:url(#clip-path);}.cls-3{fill:#fff;}.cls-4{fill:#a62159;}</style><clipPath id="clip-path"><rect class="cls-1" y="-6.34" width="736" height="571.27"/></clipPath></defs><title>Artboard 17</title><g class="cls-2"><image width="3264" height="4928" transform="translate(-34.15 -317.95) scale(0.27)" xlink:href="../../../../../../../../Downloads/brad-lloyd-623857-unsplash.jpg"/><path class="cls-3" d="M422.8,457.81c3.59-1.88,2.72-12.88-2.84-17.56s-17.15,3.91-17,7.18c.24,4.21,8.29,3.62,9.35,3.92C416.88,452.63,418.48,460.07,422.8,457.81Z"/><path class="cls-3" d="M435.61,438.92a2.39,2.39,0,0,1,1.39,2.37,9.05,9.05,0,0,1-3.89,6c-2.18,1.49-4.73,2.73-6.55-.32s1.15-5.68,2.64-6.84C430.39,439.22,433.58,438,435.61,438.92Z"/><path class="cls-3" d="M416.87,434.07c-1.92-.25-3.88-1.42-3.75-7s4.17-6.66,5.4-6.54,3.93,1.29,3.64,6.93C421.83,434,416.87,434.07,416.87,434.07Z"/><path class="cls-3" d="M406.9,438.84a3.32,3.32,0,0,0,2.06-.44c1.18-.7,2.71-3.73,2.36-6.9-.55-4.86-3.22-5.09-4.44-4.73s-4.07,1-4.11,6.34C402.73,437.76,404.82,438.62,406.9,438.84Z"/><path class="cls-3" d="M423.91,436.89c1,1.31,4.27,2,6.92-1.6s3.37-7.73,1.53-9.09c-1.65-1.23-5.82-1.63-8.18,3.44C422.1,434.12,422.7,435.37,423.91,436.89Z"/><path class="cls-4" d="M372,427.72a65.74,65.74,0,0,1,7.69-14.19,68.52,68.52,0,0,1,11.05-12.37A52.64,52.64,0,0,1,405.55,392a43.7,43.7,0,0,1,18.18-3.18c.79,0,1.58.09,2.36.16s1.52.18,2.28.27c1.51.16,3,.5,4.54.79a51.42,51.42,0,0,1,8.94,2.95,46.38,46.38,0,0,1,15.58,11.21,49,49,0,0,1,9.9,16.47,54.65,54.65,0,0,1,3.21,18.7A55.55,55.55,0,0,1,467.11,458a66,66,0,0,1-8.79,16A75.34,75.34,0,0,1,446,486.63c-2.19,1.81-4.41,3.5-6.63,5.1s-4.47,3.07-6.66,4.52c-8.82,5.78-17.15,10.94-24.09,17.78a62.59,62.59,0,0,0-9.3,11.49,88.57,88.57,0,0,0-7,13.91,55.54,55.54,0,0,1,4.56-24,62.21,62.21,0,0,1,3.94-7.49,78.71,78.71,0,0,1,10.47-13.17c1.91-2,3.91-3.87,5.88-5.71s3.95-3.61,5.91-5.32,3.86-3.42,5.69-5.12,3.63-3.35,5.3-5.06A69.14,69.14,0,0,0,442.82,463a50,50,0,0,0,5.7-11.72,38.84,38.84,0,0,0,.21-24.15,34.54,34.54,0,0,0-2.32-5.58,37,37,0,0,0-3.27-5,32.09,32.09,0,0,0-9.05-7.83,40.59,40.59,0,0,0-5.7-2.63c-1-.33-2-.73-3.09-1l-1.58-.42c-.5-.11-1-.23-1.53-.32a34.36,34.36,0,0,0-6.28-.58,38.45,38.45,0,0,0-6.5.67,49.43,49.43,0,0,0-13.14,4.74C387.61,413.68,379.49,420.21,372,427.72Z"/><path class="cls-4" d="M402.68,572.11c-1.05-3.07-2.09-6.08-3.37-9a74.17,74.17,0,0,0-4.26-8.28,57.27,57.27,0,0,0-11.58-13.63c-9-7.67-20-12.43-31.62-16.68-5.8-2.18-11.82-4.16-17.9-6.45-3.05-1.15-6.13-2.31-9.21-3.62s-6.16-2.73-9.24-4.31a80.5,80.5,0,0,1-17.77-12.06,60.64,60.64,0,0,1-13.63-18,58.85,58.85,0,0,1-4.05-10.49,74.16,74.16,0,0,1-2.26-10.72,66.85,66.85,0,0,1,.43-22.18A49.67,49.67,0,0,1,282,425.54a42.4,42.4,0,0,1,3-5.25,43.92,43.92,0,0,1,3.72-4.77,43,43,0,0,1,9.11-7.65,48.87,48.87,0,0,1,10.46-4.78,51.29,51.29,0,0,1,10.88-2.17,53.67,53.67,0,0,1,10.83.06,51.27,51.27,0,0,1,10.53,2.15,50.08,50.08,0,0,1,5.06,1.93c.83.37,1.65.78,2.46,1.22l1.2.69,1.11.68a60.14,60.14,0,0,1,8.21,6.11c1.26,1.11,2.48,2.26,3.66,3.42s2.3,2.39,3.4,3.62a87.09,87.09,0,0,1,11.28,15.92,137.51,137.51,0,0,0-14.77-12,76.77,76.77,0,0,0-15.95-8.77,40.56,40.56,0,0,0-16.55-2.07,53,53,0,0,0-8.23,1.26,44.29,44.29,0,0,0-7.6,2.66,29.71,29.71,0,0,0-11.51,9.11,28.46,28.46,0,0,0-3.39,6.17,32,32,0,0,0-1.82,7.08,44.94,44.94,0,0,0-.43,7.76,69.66,69.66,0,0,0,.81,8.14A53.24,53.24,0,0,0,302,471.3a44.13,44.13,0,0,0,9.13,12.48,70.47,70.47,0,0,0,13.4,9.92c2.52,1.48,5.15,2.89,7.86,4.26s5.47,2.74,8.3,4.07c5.68,2.64,11.51,5.37,17.38,8.31q4.41,2.22,8.75,4.75c2.91,1.68,5.77,3.49,8.54,5.48a72.8,72.8,0,0,1,15.1,14,56.49,56.49,0,0,1,9.56,18,61.43,61.43,0,0,1,2.13,9.72A65.25,65.25,0,0,1,402.68,572.11Z"/><path class="cls-3" d="M75,409.85c0,.39-.21.58-.64.58q-2.4,0-7.87-.27-5.1-.26-7.87-.19l-2.24,0a15.34,15.34,0,0,0-2.27.1c-.41.16-.62.81-.62,1.93v7.41c0,1.39.3,2.09.89,2.09,2,0,5-.1,9-.28s7-.28,9-.28c.43,0,.64.17.64.5s0,.86-.07,1.55-.08,1.2-.08,1.55,0,.93.06,1.67.06,1.31.06,1.68-.21.37-.64.37c-1.42,0-3.56,0-6.44-.13s-5-.12-6.47-.12c-2.64,0-4.14,0-4.49.06-.92.11-1.38.48-1.38,1.14q0,2.76.16,8.3c.1,3.68.15,6.45.15,8.29,0,.62-.25.93-.74.93s-1-.05-1.83-.14a18.5,18.5,0,0,0-1.86-.14c-.34,0-.88,0-1.59.09s-1.25.09-1.6.09c-.51,0-.77-.22-.77-.67q0-3.42.29-10.27c.2-4.56.29-8,.29-10.26q0-3.16-.64-20.59v-.4c0-.43.23-.67.77-.74l3.9.1q4.83.09,8.94,0,5.57-.06,14.17-.62a1.08,1.08,0,0,1,1.32,1,22.31,22.31,0,0,0,.12,2.52A25.34,25.34,0,0,1,75,409.85Z"/><path class="cls-3" d="M106.78,418.79q0,2.25-.18,6.78t-.19,6.8q0,2.25.14,6.72t.14,6.71a.77.77,0,0,1-.58.8q-.26.06-6.24.06c-.25,0-.4-.76-.45-2.3s-.17-2.31-.35-2.31a.91.91,0,0,0-.46.28q-5.13,4.46-10.14,4.46-6.8,0-9-4.92-1.35-3-1.35-10.94a54.74,54.74,0,0,1,1.14-12.08c.18-.8.52-1.2,1-1.2l2.68,0,2.67,0c.41,0,.61.22.61.67a33.34,33.34,0,0,1-.39,4,41,41,0,0,0-.47,4.21q-.09,1.84-.09,4,0,5.39.77,7.23,1.32,3.31,5.87,3.31a8.29,8.29,0,0,0,4.58-1.9c1.86-1.33,2.83-2.61,2.89-3.84q.15-2.31.15-16.23,0-1.5,1.26-1.5h5.07C106.48,417.72,106.78,418.08,106.78,418.79Z"/><path class="cls-3" d="M130,417.81a37.18,37.18,0,0,1-.46,6.14c-.06.48-.27.71-.62.71a18.14,18.14,0,0,1-1.95-.14c-.87-.09-1.53-.14-2-.14q-3.87,0-4.95,2.19-.65,1.32-.64,5.5v3.38c0,1.15,0,2.89.14,5.22s.13,4.08.13,5.23c0,.55-.23.83-.7.83l-2.89,0-2.89,0c-.47,0-.71-.25-.71-.76q0-2.49.08-7.5t.08-7.53a42.51,42.51,0,0,0-1.42-12.2,1.71,1.71,0,0,1-.06-.37.54.54,0,0,1,.4-.52l3.2-.37c2.21-.41,3.23-.62,3.07-.62.33,0,.54.61.65,1.82s.28,1.81.55,1.81a.29.29,0,0,0,.15-.06l2.52-1.6a11.68,11.68,0,0,1,2.83-1.23,10.85,10.85,0,0,1,3.07-.37C129.2,417.16,130,417.38,130,417.81Z"/><path class="cls-3" d="M163.23,431.82a16,16,0,0,1-3.78,10.6,12.55,12.55,0,0,1-10,4.8,12.41,12.41,0,0,1-7-2c-.82-.7-1.64-1.38-2.46-2.06-.22.06-.37.68-.44,1.84s-.25,1.76-.51,1.76H132.5c-.24,0-.36-.14-.36-.4,0,0,0-.17.06-.56q.48-4.9.49-18.8,0-5.69-.49-16.69-.31-7-.31-6.15a.81.81,0,0,1,.8-.89l3.29-.12c.28,0,.87-.09,1.75-.22a11.66,11.66,0,0,1,1.78-.18c.33,0,.49.24.49.71,0,.69-.05,1.76-.15,3.19s-.15,2.51-.15,3.23c0,1.07,0,2.67-.14,4.81s-.14,3.74-.14,4.81c0,.78.14,1.17.43,1.17s.3-.12.46-.34a10.88,10.88,0,0,1,8.94-4.21,12.74,12.74,0,0,1,10.3,4.76A16.7,16.7,0,0,1,163.23,431.82Zm-6.94-.28a9.9,9.9,0,0,0-2.3-6.45,7.56,7.56,0,0,0-6.06-3,7.67,7.67,0,0,0-6.14,2.92,10.22,10.22,0,0,0,0,13.09A7.77,7.77,0,0,0,148,441a7.51,7.51,0,0,0,6.06-3A10,10,0,0,0,156.29,431.54Z"/><path class="cls-3" d="M196.87,418.85a3.61,3.61,0,0,1-.09.56,73.62,73.62,0,0,0-1.2,12.13q0,.31.77,13.8l0,.43c0,.6-.25.89-.82.89a25.13,25.13,0,0,0-2.55.2,22.2,22.2,0,0,1-2.53.2c-.39,0-.69-.71-.89-2.15s-.4-2.15-.59-2.15a8.26,8.26,0,0,0-1.66,1.2A18,18,0,0,1,184,446.2a10.64,10.64,0,0,1-4.85,1.23,12.71,12.71,0,0,1-10.05-4.76,15.86,15.86,0,0,1-3.87-10.6,16.5,16.5,0,0,1,3.9-11.28,13.64,13.64,0,0,1,10.75-4.64,11.68,11.68,0,0,1,8.21,3.26c.35.41.89,1,1.63,1.78a.26.26,0,0,0,.18.09c.13,0,.3-.64.53-1.93s.51-1.94.86-1.94a18.81,18.81,0,0,1,3.1.46C196,418.24,196.87,418.57,196.87,418.85ZM189,431.7a9.88,9.88,0,0,0-2.24-6.49,7.47,7.47,0,0,0-6-2.91,7.76,7.76,0,0,0-6.15,2.88,9.72,9.72,0,0,0-2.37,6.52,9.52,9.52,0,0,0,2.37,6.45,7.77,7.77,0,0,0,6.15,2.86,7.53,7.53,0,0,0,6-2.92A9.71,9.71,0,0,0,189,431.7Z"/><path class="cls-3" d="M231.73,431.82a16,16,0,0,1-3.78,10.6,12.55,12.55,0,0,1-10,4.8,12.41,12.41,0,0,1-7-2c-.82-.7-1.64-1.38-2.46-2.06-.23.06-.37.68-.45,1.84s-.24,1.76-.5,1.76H201c-.24,0-.37-.14-.37-.4,0,0,0-.17.07-.56q.48-4.9.49-18.8,0-5.69-.49-16.69-.31-7-.31-6.15a.8.8,0,0,1,.8-.89l3.29-.12c.28,0,.87-.09,1.75-.22a11.66,11.66,0,0,1,1.78-.18c.33,0,.49.24.49.71,0,.69-.05,1.76-.15,3.19s-.16,2.51-.16,3.23c0,1.07,0,2.67-.13,4.81s-.14,3.74-.14,4.81c0,.78.14,1.17.43,1.17s.29-.12.46-.34a10.88,10.88,0,0,1,8.94-4.21,12.74,12.74,0,0,1,10.3,4.76A16.75,16.75,0,0,1,231.73,431.82Zm-6.94-.28a9.86,9.86,0,0,0-2.31-6.45,7.54,7.54,0,0,0-6-3,7.71,7.71,0,0,0-6.15,2.92,10.26,10.26,0,0,0,0,13.09,7.8,7.8,0,0,0,6.21,2.89,7.51,7.51,0,0,0,6.06-3A10,10,0,0,0,224.79,431.54Z"/><path class="cls-3" d="M261.37,425.28a35.34,35.34,0,0,1-.3,6.26q-.4,1.4-7.61,12.07t-8.56,11.94q-1.23,1.09-7.93,1.1a2.05,2.05,0,0,1-1-.17,9.29,9.29,0,0,1-1-2.23,12.21,12.21,0,0,1-.82-2.45c0-.45.55-.68,1.63-.68a10.14,10.14,0,0,0,5.07-1,7.79,7.79,0,0,0,1.68-2.12,6.2,6.2,0,0,0,1.12-2.4c0-.55-1.49-2.72-4.46-6.48q-4.69-6-5.25-7.6a24.47,24.47,0,0,1-.43-6c0-.78,0-1.95,0-3.52s0-2.75,0-3.55c0-.45.25-.67.74-.67.65,0,1.62,0,2.9.12s2.25.12,2.91.12c.32,0,.49.22.49.65s0,1.43-.09,2.58-.1,2-.1,2.58a46.74,46.74,0,0,0,.25,5.59q.18,1.17,3.35,5.81c2.11,3.1,3.41,4.64,3.9,4.64s1.46-1.52,3.32-4.56,2.86-4.92,3-5.64a42.25,42.25,0,0,0,.25-5.59,25.29,25.29,0,0,0-.19-2.63c-.12-1.16-.18-2-.18-2.6s.16-.76.49-.76c.66,0,1.64,0,3-.14s2.3-.14,3-.14S261.37,420.3,261.37,425.28Z"/><path class="cls-3" d="M53.91,500.17c0,.43-.3.65-.89.65-.37,0-.93,0-1.69-.09s-1.32-.1-1.69-.1-1,0-1.72.1-1.32.09-1.69.09-.77-.24-.77-.71q0-3.5.32-10.56T46.11,479c0-2.28-.11-5.69-.33-10.25s-.32-8-.32-10.25c0-.51.24-.77.71-.77s1,0,1.78.1,1.4.09,1.81.09.92,0,1.66-.09,1.29-.1,1.66-.1c.53,0,.8.21.8.62q0,3.44-.25,10.32T53.39,479c0,2.35.09,5.89.26,10.6S53.91,497.82,53.91,500.17Z"/><path class="cls-3" d="M86.75,500.2c0,.45-.21.68-.62.68l-3,0-3,0c-.37,0-.56-.3-.56-.89,0-1,0-2.53.1-4.58s.09-3.59.09-4.61c0-.82,0-2.05,0-3.67s0-2.86,0-3.68c0-2.33-.34-4-1-4.94q-1.23-1.72-4.54-1.72a9,9,0,0,0-4.28,1.72q-2.88,1.82-2.88,3.22v18.44c0,.51-.2.77-.59.77l-3,0-3,0c-.43,0-.64-.24-.64-.71,0-1.62,0-4,.07-7.28s.08-5.68.08-7.32a49.75,49.75,0,0,0-1.38-12.07,1.72,1.72,0,0,1-.1-.4c0-.21.14-.35.4-.43l3.52-.57c2.2-.36,3.36-.54,3.46-.54s.2.17.25.49a19.43,19.43,0,0,0,.7,3.84q1.61-1.26,4.21-3.13a12,12,0,0,1,6.24-2q5.77,0,7.9,3.35c1,1.64,1.57,4.29,1.57,8,0,.64,0,1.61,0,2.92s0,2.3,0,3q0,2.05.06,6.15T86.75,500.2Z"/><path class="cls-3" d="M121.49,458q0,4-.36,11.88t-.35,11.84q0,12.15.52,18.38l0,.4c0,.2-.25.34-.83.4a11.24,11.24,0,0,1-1.66,0l-1.19-.09c-.31,0-.76,0-1.36.09s-1,.09-1.35.09-.45-.71-.51-2.14-.12-2.14-.23-2.16a1.79,1.79,0,0,0-.46.4,13,13,0,0,1-19.88-.19,16.06,16.06,0,0,1-3.78-10.75,16.32,16.32,0,0,1,3.81-11,13,13,0,0,1,10.42-4.67,10.59,10.59,0,0,1,6.76,2.27c.88.76,1.75,1.53,2.61,2.3a.4.4,0,0,0,.25-.43v-9.95c0-.68,0-1.7-.09-3.08s-.1-2.4-.1-3.1c0-.49.17-.74.5-.74.75,0,1.88-.06,3.38-.2s2.61-.2,3.35-.2C121.31,457.3,121.49,457.52,121.49,458Zm-7.68,28a10,10,0,0,0-2.28-6.48,7.47,7.47,0,0,0-6-3,7.77,7.77,0,0,0-6.24,2.95A9.94,9.94,0,0,0,96.93,486a9.36,9.36,0,0,0,2.43,6.42,7.82,7.82,0,0,0,6.15,2.89,7.55,7.55,0,0,0,6.08-2.92A10,10,0,0,0,113.81,485.91Z"/><path class="cls-3" d="M152.36,484.32a3,3,0,0,1-2,3q-1.32.5-19,1.81a6.9,6.9,0,0,0,3,4.61,8.72,8.72,0,0,0,5.28,1.81,14.27,14.27,0,0,0,8.92-3.13l1-.8a.57.57,0,0,1,.32.06c.05,0,.44.75,1.15,2.14a17.48,17.48,0,0,1,1.08,2.23c0,.12-.16.35-.49.7a15.21,15.21,0,0,1-11.59,4.8q-7.12,0-11.37-4.26T124.39,486a16.34,16.34,0,0,1,4.06-11,13.41,13.41,0,0,1,10.48-4.88,12.52,12.52,0,0,1,9.65,4.24A14.26,14.26,0,0,1,152.36,484.32ZM145,482.44a6.17,6.17,0,0,0-2-4.52,6.32,6.32,0,0,0-4.53-2,6.84,6.84,0,0,0-5,2.27,7.19,7.19,0,0,0-2.19,5.1c0,.43.36.65,1.1.65a77.83,77.83,0,0,0,10.88-.92C144.45,482.89,145,482.69,145,482.44Z"/><path class="cls-3" d="M202.74,499.68c0,.8-.24,1.2-.71,1.2-.31,0-.77,0-1.4-.09s-1.1-.1-1.43-.1-.87,0-1.56.07-1.22.06-1.57.06-.65-.48-.65-1.45,0-2.35.11-4.22.11-3.28.11-4.23q0-7.77-.06-8.66c-.17-2.11-.6-3.57-1.29-4.37s-2.23-1.29-4.27-1.29a7.56,7.56,0,0,0-4.37,1.85q-2.52,1.94-2.61,3.81-.12,2.39-.12,8.75c0,1,0,2.51.12,4.52s.12,3.52.12,4.52c0,.55-.18.83-.55.83s-.91,0-1.61-.09-1.25-.1-1.62-.1-.81,0-1.44.07-1.12.06-1.44.06-.62-.3-.62-.89q0-1.49.09-4.44t.09-4.44v-7.41a10.83,10.83,0,0,0-.82-4.95q-1.17-2.08-4.46-2.09a9.34,9.34,0,0,0-4.61,1.63q-3,1.78-2.95,3.6v9c0,1,0,2.55,0,4.58s0,3.54,0,4.55c0,.59-.23.89-.71.89h-5.71c-.41,0-.62-.28-.62-.83,0-1.66,0-4.16,0-7.48s0-5.83,0-7.49a53.2,53.2,0,0,0-1.2-11.21,3.33,3.33,0,0,1-.1-.65c0-.27.1-.42.28-.46.76-.08,1.87-.24,3.32-.46a29.42,29.42,0,0,1,3-.68l.25,0c.24,0,.48.72.69,2.17s.4,2.16.57,2.16l1.53-1.35a18.68,18.68,0,0,1,3.63-2.49,11.28,11.28,0,0,1,5.23-1.35q7.06,0,9,5.78a15.76,15.76,0,0,1,4.73-4.06,12,12,0,0,1,6-1.72q5.69,0,7.87,3.32c1,1.64,1.57,4.23,1.57,7.77,0,.68,0,1.73-.06,3.14s-.07,2.46-.07,3.13c0,1.29,0,3.24.1,5.83S202.74,498.39,202.74,499.68Z"/><path class="cls-3" d="M235.27,500.2c0,.45-.21.68-.62.68l-3,0-3,0c-.37,0-.55-.3-.55-.89,0-1,0-2.53.09-4.58s.09-3.59.09-4.61c0-.82,0-2.05,0-3.67s0-2.86,0-3.68c0-2.33-.34-4-1-4.94q-1.23-1.72-4.54-1.72a9,9,0,0,0-4.27,1.72q-2.9,1.82-2.89,3.22v18.44c0,.51-.2.77-.59.77l-3,0-2.95,0c-.43,0-.64-.24-.64-.71,0-1.62,0-4,.07-7.28s.08-5.68.08-7.32a49.75,49.75,0,0,0-1.38-12.07,1.56,1.56,0,0,1-.09-.4c0-.21.13-.35.4-.43l3.51-.57c2.21-.36,3.36-.54,3.46-.54s.21.17.25.49a19.43,19.43,0,0,0,.7,3.84q1.6-1.26,4.21-3.13a12,12,0,0,1,6.24-2c3.85,0,6.49,1.12,7.9,3.35,1,1.64,1.57,4.29,1.57,8,0,.64,0,1.61-.05,2.92s-.05,2.3-.05,3q0,2.05.07,6.15T235.27,500.2Z"/><path class="cls-3" d="M248.47,464.06c0,2.52-1.41,3.78-4.21,3.78s-4.28-1.26-4.28-3.78a3.5,3.5,0,0,1,1.33-2.79,4.63,4.63,0,0,1,5.91,0A3.49,3.49,0,0,1,248.47,464.06Zm-.22,8.33q0,2.37-.29,7.15c-.2,3.18-.29,5.57-.29,7.17s0,3.74.09,6.72.09,5.21.09,6.68c0,.43-.18.65-.55.65h-6c-.43,0-.65-.42-.65-1.26,0-1.42,0-3.54.11-6.38s.11-5,.11-6.41c0-1.6-.12-4-.36-7.19s-.35-5.59-.35-7.19c0-.35.21-.52.64-.52a14.72,14.72,0,0,1,1.71.15,9.49,9.49,0,0,0,3.47,0,14.77,14.77,0,0,1,1.74-.15C248.08,471.81,248.25,472,248.25,472.39Z"/><path class="cls-3" d="M270.82,495.16c0,.45,0,1.07-.12,1.85-.1,1-.16,1.58-.18,1.87a2.31,2.31,0,0,1-.1.68,1.32,1.32,0,0,1-.58.43q-2.52,1.2-7.93,1.2-7.19,0-7.19-6.52,0-2.61.12-7.85T255,479a1.21,1.21,0,0,0-1.26-1.35q-1.14,0-2.25,0c-.43-.11-.64-.95-.64-2.52a15.57,15.57,0,0,1,.12-1.88,1,1,0,0,1,1-.89c.52,0,1,0,1.51,0q1.41-.06,1.41-1.26c0-.82,0-2.07-.07-3.75s-.08-2.94-.08-3.78c0-1.49.29-2.24.86-2.24q.27,0,5.78.95c.47.06.7.29.7.68,0,.9-.06,2.25-.19,4.05s-.2,3.16-.2,4.06c0,.59.27.89.82.89h7.38c.35,0,.52.12.52.37a10.14,10.14,0,0,1-.1,1.18,8.78,8.78,0,0,0-.11,1.22q0,.45,0,1.41c0,.63,0,1.11,0,1.41s-.29.59-.86.59c-.82,0-2.06-.06-3.72-.17s-2.9-.17-3.72-.17c-.16,0-.29.58-.37,1.75-.1,1.46-.15,3.49-.15,6.12v4.57a9.52,9.52,0,0,0,.49,3.69,3,3,0,0,0,3,1.6,13.76,13.76,0,0,0,2.8-.42,14.31,14.31,0,0,1,2.73-.41C270.7,494.61,270.82,494.79,270.82,495.16Z"/><path class="cls-3" d="M300.46,479.43a35.57,35.57,0,0,1-.3,6.27q-.41,1.38-7.61,12.06T284,509.7c-.82.74-3.46,1.1-7.93,1.1a2.09,2.09,0,0,1-1-.16,9.78,9.78,0,0,1-1-2.23,12.2,12.2,0,0,1-.82-2.46c0-.45.55-.68,1.63-.68a10,10,0,0,0,5.07-1,7.62,7.62,0,0,0,1.68-2.12,6.2,6.2,0,0,0,1.12-2.4q0-.82-4.46-6.48-4.69-6-5.25-7.59a24.58,24.58,0,0,1-.43-6c0-.78,0-2,0-3.52s0-2.75,0-3.55c0-.45.25-.68.74-.68.65,0,1.62,0,2.9.12s2.25.13,2.91.13c.32,0,.49.21.49.64s0,1.44-.09,2.58-.1,2-.1,2.59a47,47,0,0,0,.25,5.59c.12.78,1.24,2.71,3.35,5.81s3.41,4.64,3.9,4.64,1.46-1.52,3.32-4.57,2.86-4.92,3-5.64a40.43,40.43,0,0,0,.25-5.59,25.47,25.47,0,0,0-.19-2.63c-.12-1.15-.18-2-.18-2.59s.16-.77.49-.77c.66,0,1.64-.05,3-.14s2.3-.14,3-.14S300.46,474.45,300.46,479.43Z"/></g></svg>