<svg xmlns="http://www.w3.org/2000/svg" viewBox="0 0 306.71 130.02"><defs><style>.cls-1{fill:#8e7f70;}.cls-2{fill:#e6e7e8;}</style></defs><title>logo_gold_grey_1</title><g id="Layer_2" data-name="Layer 2"><g id="Layer_1-2" data-name="Layer 1"><path class="cls-1" d="M60.93,104.74l4.82,11.05,5.09-12.3,5.06,12.3,4.86-11.05h3.13l-8.07,17.4L70.8,110l-5,12.15-8-17.4Z"/><path class="cls-1" d="M100.37,116.85a9.92,9.92,0,0,1-2,2.63,7.91,7.91,0,0,1-5.41,2c-3.92,0-8-2.47-8-8.51,0-4.86,3-8.62,7.88-8.62a7.28,7.28,0,0,1,6.15,3,10.9,10.9,0,0,1,1.53,6.11H87.83c0,3.37,2.35,5.53,5.17,5.53a4.92,4.92,0,0,0,3.33-1.18A6.35,6.35,0,0,0,98,115.56Zm-2.78-5.76a4.86,4.86,0,0,0-4.78-4.23A4.94,4.94,0,0,0,88,111.09Z"/><path class="cls-1" d="M107.2,121h-2.83V92.44h2.83V107a7,7,0,0,1,5.56-2.67c5.1,0,7.92,4.23,7.92,8.62s-2.86,8.51-7.8,8.51a6.89,6.89,0,0,1-5.68-2.75Zm10.58-8c0-4-2.71-6.11-5.33-6.11S107,109,107,112.93c0,3.33,2.11,6,5.45,6S117.78,116.22,117.78,113Z"/><path class="cls-1" d="M146.19,92.44H149V121h-2.82v-2.28a6.86,6.86,0,0,1-5.57,2.75c-4.11,0-7.91-2.9-7.91-8.62s3.76-8.51,7.91-8.51a6.74,6.74,0,0,1,5.57,2.7Zm-10.58,20.42c0,3.48,2,6.11,5.33,6.11s5.4-2.86,5.4-6.08c0-4.19-2.9-6-5.4-6C138.15,106.86,135.61,108.9,135.61,112.86Z"/><path class="cls-1" d="M168.42,116.85a9.92,9.92,0,0,1-2,2.63,7.91,7.91,0,0,1-5.41,2c-3.92,0-8-2.47-8-8.51,0-4.86,3-8.62,7.87-8.62a7.29,7.29,0,0,1,6.16,3,10.9,10.9,0,0,1,1.53,6.11H155.88c0,3.37,2.35,5.53,5.17,5.53a4.92,4.92,0,0,0,3.33-1.18,6.35,6.35,0,0,0,1.69-2.23Zm-2.78-5.76a4.86,4.86,0,0,0-4.79-4.23,4.94,4.94,0,0,0-4.78,4.23Z"/><path class="cls-1" d="M172.75,104.74l4.86,11,4.86-11h3.14l-8,17.33-8-17.33Z"/><path class="cls-1" d="M202.07,116.85a9.92,9.92,0,0,1-2,2.63,7.91,7.91,0,0,1-5.41,2c-3.92,0-8-2.47-8-8.51,0-4.86,3-8.62,7.87-8.62a7.29,7.29,0,0,1,6.16,3,11,11,0,0,1,1.52,6.11H189.53c0,3.37,2.35,5.53,5.17,5.53a4.92,4.92,0,0,0,3.33-1.18,6.48,6.48,0,0,0,1.69-2.23Zm-2.78-5.76a4.88,4.88,0,0,0-4.79-4.23,4.94,4.94,0,0,0-4.78,4.23Z"/><path class="cls-1" d="M208.94,92.44V121h-2.82V92.44Z"/><path class="cls-1" d="M212.82,112.93a8.63,8.63,0,1,1,8.62,8.55A8.35,8.35,0,0,1,212.82,112.93Zm2.9,0a5.73,5.73,0,1,0,11.45,0c0-4-2.75-6.07-5.73-6.07S215.72,109,215.72,112.93Z"/><path class="cls-1" d="M236.8,130H234V104.74h2.82V107a7,7,0,0,1,5.56-2.67c5.1,0,7.92,4.23,7.92,8.62s-2.86,8.51-7.8,8.51a6.9,6.9,0,0,1-5.68-2.75ZM247.38,113c0-4-2.7-6.11-5.33-6.11s-5.41,2.15-5.41,6.07c0,3.33,2.12,6,5.45,6S247.38,116.22,247.38,113Z"/><path class="cls-1" d="M268.7,116.85a9.71,9.71,0,0,1-2,2.63,7.91,7.91,0,0,1-5.41,2c-3.91,0-8-2.47-8-8.51,0-4.86,3-8.62,7.88-8.62a7.28,7.28,0,0,1,6.15,3,10.9,10.9,0,0,1,1.53,6.11H256.16c0,3.37,2.35,5.53,5.17,5.53a4.93,4.93,0,0,0,3.34-1.18,6.44,6.44,0,0,0,1.68-2.23Zm-2.78-5.76a4.86,4.86,0,0,0-4.78-4.23,4.94,4.94,0,0,0-4.78,4.23Z"/><path class="cls-1" d="M272.71,104.74h2.82v1.77a4.49,4.49,0,0,1,3.68-2.16,5.85,5.85,0,0,1,2.51.67l-1.33,2.54a2.91,2.91,0,0,0-1.65-.54,2.75,2.75,0,0,0-2.27,1c-.47.63-.94,1.73-.94,4.39V121h-2.82Z"/><path class="cls-2" d="M55.21,57.75a3,3,0,0,1-.92,1.63Q44.93,70.22,31.11,70.23q-14.4,0-23-10.51Q0,49.93,0,35.23T8.21,10.66Q16.94,0,31.3,0,45.85,0,53.81,9.84a3,3,0,0,1,.77,1.68q0,.81-2.54,4.83t-3.07,4c-.42,0-1.4-.78-2.93-2.35a26,26,0,0,0-5.33-4.32,18.07,18.07,0,0,0-9.12-2.35q-9.51,0-14.79,7.25-4.71,6.48-4.7,16.32t4.65,16.46a17,17,0,0,0,14.74,7.45,18.85,18.85,0,0,0,9.07-2.36,27,27,0,0,0,5.86-4.37,16.79,16.79,0,0,1,2.74-2.35q.29,0,3.17,3.82T55.21,57.75Z"/><path class="cls-1" d="M100.92,67.52c0,1.18-.33,1.77-1,1.77-1,0-2.49,0-4.51,0s-3.52,0-4.51,0q-1.2,0-1.2-1.59c0-1.53,0-3.85.17-7s.16-5.44.16-7,0-3.7-.16-6.69-.17-5.24-.17-6.75q0-8.64-8.16-8.64-2.64,0-6.92,2.64Q70,37,70.05,39.39V67.9c0,.93-.33,1.39-1,1.39-1,0-2.48,0-4.47,0s-3.47,0-4.46,0c-.74,0-1.11-.43-1.11-1.3V44.72q0-5.67-.62-24.1-.11-5.72-.82-16.9A6.16,6.16,0,0,1,57.48,3c0-.54.19-.88.57-1a27.16,27.16,0,0,1,5.43-.28,18.86,18.86,0,0,0,3-.36A18.92,18.92,0,0,1,69.43.94c.42,0,.62.3.62.91q0,4.52-.36,13.56T69.33,29c0,.74.13,1.12.39,1.15,1.63-1.37,3.74-3,6.33-5A18.54,18.54,0,0,1,86,22.2q9,0,12.43,5.38,2.46,3.93,2.45,12.48c0,1,0,2.52-.07,4.58s-.07,3.6-.07,4.59c0,2.05,0,5.1.1,9.17S100.92,65.5,100.92,67.52Z"/><path class="cls-2" d="M133.07,24.17a58.64,58.64,0,0,1-.72,9.6c-.1.74-.42,1.1-1,1.1s-1.69-.07-3-.21a30.49,30.49,0,0,0-3.1-.22q-6,0-7.73,3.41-1,2.07-1,8.59v5.28c0,1.8.08,4.52.22,8.17s.22,6.36.22,8.16q0,1.29-1.11,1.29c-1,0-2.49,0-4.51,0s-3.52,0-4.51,0q-1.11,0-1.11-1.2c0-2.6,0-6.5.12-11.72s.12-9.13.12-11.76q0-11.85-2.21-19.06a2.67,2.67,0,0,1-.09-.57.84.84,0,0,1,.62-.82l5-.57q5.17-1,4.8-1c.51,0,.84.94,1,2.83s.45,2.83.87,2.83a.45.45,0,0,0,.24-.1l3.93-2.49a17.44,17.44,0,0,1,4.42-1.92,16.46,16.46,0,0,1,4.8-.58C131.82,23.16,133.07,23.5,133.07,24.17Z"/><path class="cls-2" d="M179.42,35.79q0,8.12-.48,9.79-.63,2.16-11.88,18.84T153.69,83.07q-1.92,1.73-12.39,1.73a3.17,3.17,0,0,1-1.6-.26,14.73,14.73,0,0,1-1.64-3.48,19,19,0,0,1-1.27-3.84c0-.71.85-1.06,2.55-1.06q5.37,0,7.92-1.54a11.89,11.89,0,0,0,2.61-3.31c1.17-1.86,1.76-3.1,1.76-3.74q0-1.3-7-10.13-7.33-9.36-8.2-11.86-.68-2-.68-9.41c0-1.22,0-3.05.05-5.5s0-4.29,0-5.54c0-.7.38-1.06,1.15-1.06,1,0,2.54.07,4.54.2s3.51.19,4.53.19c.52,0,.77.33.77,1,0,.89-.05,2.24-.14,4s-.15,3.13-.15,4a71.19,71.19,0,0,0,.39,8.74q.28,1.81,5.23,9.07t6.1,7.25q.81,0,5.18-7.13t4.66-8.81a66.63,66.63,0,0,0,.38-8.74,40.1,40.1,0,0,0-.29-4.1C168,28,168,26.65,168,25.75s.25-1.2.76-1.2c1,0,2.57-.07,4.64-.21s3.6-.22,4.63-.22S179.42,28,179.42,35.79Z"/><path class="cls-2" d="M203,58.23a13.67,13.67,0,0,1-8.22,9.83,20.23,20.23,0,0,1-13.2.89,17,17,0,0,1-3.14-.9c-.47-.37-.55-1.2-.24-2.47a30.35,30.35,0,0,0,.48-3.15,28.15,28.15,0,0,1,.46-3.09c.1-.41.44-.6,1-.59a5.3,5.3,0,0,1,1.73.41l1.37.47q8.82,2.11,10.12-3.3.62-2.56-2.75-5.64a75.53,75.53,0,0,1-6.22-6,11.22,11.22,0,0,1-1.8-9.61,13.24,13.24,0,0,1,7.89-9.67q5.61-2.36,12.89-.62a1.06,1.06,0,0,1,.81.84,33.93,33.93,0,0,1,.26,4.06,25.14,25.14,0,0,1,0,4c-.08.34-.43.48-1,.44q-3.09-.3-6.22-.65-3.82.12-4.53,3.06c-.34,1.4.59,3.12,2.77,5.15a45.42,45.42,0,0,1,6,6.23A12.66,12.66,0,0,1,203,58.23Z"/><path class="cls-2" d="M239.77,60.37c0,.7-.07,1.66-.2,2.88-.16,1.5-.25,2.48-.28,2.92a3.75,3.75,0,0,1-.15,1.06,2,2,0,0,1-.91.67c-2.63,1.25-6.75,1.87-12.39,1.87q-11.24,0-11.23-10.17,0-4.08.19-12.27T215,35.07A1.89,1.89,0,0,0,213,33c-1.19,0-2.36,0-3.51,0-.67-.16-1-1.48-1-3.94a23.4,23.4,0,0,1,.2-2.93c.09-.77.6-1.23,1.53-1.39.8,0,1.59,0,2.35,0,1.48-.06,2.21-.72,2.21-2s0-3.23-.12-5.85-.12-4.6-.12-5.91c0-2.33.45-3.5,1.35-3.5q.42,0,9,1.49c.74.09,1.11.45,1.11,1.05q0,2.12-.32,6.34c-.2,2.82-.31,4.93-.31,6.34,0,.92.43,1.39,1.3,1.39h11.52c.54,0,.82.19.82.57a16.46,16.46,0,0,1-.17,1.85,16.54,16.54,0,0,0-.17,1.9c0,.48,0,1.21,0,2.21s.05,1.72.05,2.2-.45.92-1.35.92q-1.92,0-5.81-.27t-5.81-.26c-.25,0-.44.91-.57,2.74q-.24,3.4-.24,9.55v7.15a14.82,14.82,0,0,0,.77,5.76c.76,1.67,2.35,2.5,4.75,2.5a22,22,0,0,0,4.37-.65,21.84,21.84,0,0,1,4.27-.65C239.57,59.5,239.77,59.79,239.77,60.37Z"/><path class="cls-2" d="M291,25.75a5.42,5.42,0,0,1-.15.87,115.09,115.09,0,0,0-1.87,19q0,.48,1.2,21.55l.05.68c0,.92-.39,1.39-1.27,1.39a37.14,37.14,0,0,0-4,.31,37.07,37.07,0,0,1-4,.31c-.61,0-1.07-1.12-1.39-3.36s-.63-3.36-.91-3.36a12.56,12.56,0,0,0-2.6,1.87,27.67,27.67,0,0,1-5.28,3.51,16.61,16.61,0,0,1-7.58,1.92A19.92,19.92,0,0,1,247.57,63a24.79,24.79,0,0,1-6-16.56q0-10.66,6.1-17.62,6.39-7.25,16.8-7.25a18.23,18.23,0,0,1,12.82,5.09c.54.64,1.39,1.57,2.54,2.78a.41.41,0,0,0,.29.15c.19,0,.46-1,.82-3s.8-3,1.34-3a29.91,29.91,0,0,1,4.85.72C289.7,24.79,291,25.31,291,25.75ZM278.77,45.82a15.33,15.33,0,0,0-3.5-10.13,11.64,11.64,0,0,0-9.46-4.56,12.08,12.08,0,0,0-9.6,4.51,15.19,15.19,0,0,0-3.69,10.18,14.93,14.93,0,0,0,3.69,10.08,12.14,12.14,0,0,0,9.6,4.47,11.76,11.76,0,0,0,9.41-4.56A15.14,15.14,0,0,0,278.77,45.82Z"/><path class="cls-2" d="M306.7,2.62l0,.62q-1.07,17.85-1.06,30.67,0,5.72.19,17.12T306,68.09c0,.74-.25,1.11-.76,1.11h-9.17q-.87,0-.87-1.11,0-5.66.1-17.06t.09-17.12q0-5.17-.5-15.57t-.5-15.53c0-.64.33-1,1-1s1.44,0,2.6.14,2,.15,2.59.15,1.5-.05,2.69-.15,2.06-.14,2.64-.14S306.74,2.1,306.7,2.62Z"/></g></g></svg>