<svg xmlns="http://www.w3.org/2000/svg" xmlns:xlink="http://www.w3.org/1999/xlink" viewBox="0 0 920.45 756.17"><defs><style>.cls-1{fill:none;}.cls-2{clip-path:url(#clip-path);}.cls-3{fill:#6dd1c7;}.cls-4{fill:#92718c;stroke:#92718c;}.cls-4,.cls-6,.cls-7{stroke-miterlimit:10;stroke-width:8px;}.cls-5{fill:#fff;}.cls-6{fill:#d36446;stroke:#d36446;}.cls-7{fill:#27859d;stroke:#27859d;}.cls-8{fill:#815e3b;}.cls-9{fill:#5d3d1a;}.cls-10{fill:#bfa47e;}.cls-11{fill:#b79868;}.cls-12{fill:#21211f;}.cls-13{fill:#d6aa34;}.cls-14{fill:#009b44;}.cls-15{fill:#c49a6c;}.cls-16{fill:#a48255;}.cls-17{fill:#017731;}</style><clipPath id="clip-path"><rect class="cls-1" x="142.79" y="173.41" width="735.65" height="562.37"/></clipPath></defs><title>mettler_cover</title><g id="Layer_2" data-name="Layer 2"><g id="Layer_5" data-name="Layer 5"><g class="cls-2"><rect class="cls-3" x="142.79" y="172.78" width="735.65" height="563"/><path class="cls-4" d="M352.18,414.4a233,233,0,0,1-1.78,32q-1.06,7.28-5.65,7.27-5.08,0-5.08-5.59c0-.17.2-2.06.61-5.65q.71-6.36,1.17-12.87.6-9.66.61-20.25A273.64,273.64,0,0,0,339,370.24q-12.3,12.15-21.67,38c-1.25,3.6-2.51,7.17-3.76,10.74q-1.83,4-5.09,4a4.92,4.92,0,0,1-4.63-3.1q-.57-1.11-3-9.11-6.25-21-23.56-39.68-5.64,18.31-5.65,50,0,4.57.39,11.3t.38,8.9q0,7.74-5.14,7.73c-2.68,0-4.39-1.62-5.14-4.88q-.76-3.57-.76-16.28,0-34.4,5-56.78,1.74-7.64,3.52-10.68,1.93-3.25,5-3.26,3.32,0,7.59,4.58a160.08,160.08,0,0,1,13.79,16.43,109.26,109.26,0,0,1,12.82,24.42q9.42-22.34,19.93-36,8.75-12.1,13.94-12.1a3.62,3.62,0,0,1,3.31,1.93,24.43,24.43,0,0,1,2,6.1Q352.18,378.84,352.18,414.4Z"/><path class="cls-5" d="M422.61,415.3a2.86,2.86,0,0,1-.74,2,2.25,2.25,0,0,1-1.73.82,22.28,22.28,0,0,1-3.82-1.3,17.61,17.61,0,0,0-6.48-1.3,17.14,17.14,0,0,0-2.1.13,45.5,45.5,0,0,0-1.24,10q0,5.83,2,9a6.14,6.14,0,0,0,5.47,3.13,8.4,8.4,0,0,0,2.82-.68,8,8,0,0,1,2.51-.69c1.78,0,2.67,1.05,2.67,3.14a3.76,3.76,0,0,1-2.2,3.3,12.11,12.11,0,0,1-6,1.27q-14.14,0-14.14-18.84a43.87,43.87,0,0,1,1-8.74c-.62.09-2,.35-4,.77a17.1,17.1,0,0,1-3,.4q-3.55,0-3.56-2.73,0-3.73,12.3-4.87,2.53-8,6.2-8a2.61,2.61,0,0,1,1.94.82,2.74,2.74,0,0,1,.8,2,6.55,6.55,0,0,1-.5,2.19c-.34.88-.67,1.76-1,2.65Q422.61,410.07,422.61,415.3Z"/><path class="cls-5" d="M386.39,417.9A5.81,5.81,0,0,1,384,423q-1.07.74-6.77,1.9a65,65,0,0,1-12.9,1.57c-1.63,0-3.58-.11-5.87-.33q0,12.57,9.57,12.57a8.07,8.07,0,0,0,4.77-1.51,32.38,32.38,0,0,0,3.83-3.56,2.94,2.94,0,0,1,2.1-1,3.27,3.27,0,0,1,2.42,1.05,3.58,3.58,0,0,1,1,2.59,3.42,3.42,0,0,1-1,2.33q-5.74,6.27-13.44,6.27-15.93,0-15.94-18.44a26.94,26.94,0,0,1,5.07-16.4q5.78-7.84,14.27-7.84a14.57,14.57,0,0,1,10.94,4.44A15.5,15.5,0,0,1,386.39,417.9Zm-6.64.4a12.12,12.12,0,0,0-2.41-7.34,6.9,6.9,0,0,0-5.55-2.7,10.81,10.81,0,0,0-7.64,3.1,18.92,18.92,0,0,0-5.07,8.87,44.59,44.59,0,0,0,5,.27A69.11,69.11,0,0,0,379.75,418.3Z"/><path class="cls-5" d="M457.83,415.3a2.86,2.86,0,0,1-.74,2,2.27,2.27,0,0,1-1.73.82,22.28,22.28,0,0,1-3.82-1.3,17.61,17.61,0,0,0-6.48-1.3,17.14,17.14,0,0,0-2.1.13,44.9,44.9,0,0,0-1.24,10q0,5.83,2,9a6.13,6.13,0,0,0,5.47,3.13A8.4,8.4,0,0,0,452,437a8,8,0,0,1,2.51-.69c1.78,0,2.67,1.05,2.67,3.14a3.76,3.76,0,0,1-2.2,3.3,12.11,12.11,0,0,1-6,1.27q-14.15,0-14.14-18.84a43.87,43.87,0,0,1,1-8.74c-.62.09-2,.35-4,.77a16.9,16.9,0,0,1-3,.4c-2.38,0-3.56-.91-3.56-2.73q0-3.73,12.3-4.87,2.53-8,6.2-8a2.57,2.57,0,0,1,1.93.82,2.7,2.7,0,0,1,.8,2,6.31,6.31,0,0,1-.5,2.19c-.33.88-.66,1.76-1,2.65Q457.83,410.07,457.83,415.3Z"/><path class="cls-5" d="M471.53,446a10.59,10.59,0,0,1-.3,3.1,2.38,2.38,0,0,1-2.49,1.47q-3.15,0-3.72-5.14a227.74,227.74,0,0,1-1-23.74q0-16.83.47-20.7c.35-2.82,1.47-4.24,3.35-4.24q3.31,0,3.32,4c0,.67-.13,3.32-.37,7.95s-.37,8.91-.37,12.82q0,5.13.54,13.29T471.53,446Z"/><path class="cls-5" d="M513.31,417.9a5.81,5.81,0,0,1-2.4,5.13q-1.07.74-6.77,1.9a65,65,0,0,1-12.9,1.57c-1.63,0-3.58-.11-5.87-.33q0,12.57,9.57,12.57a8.07,8.07,0,0,0,4.77-1.51,33.22,33.22,0,0,0,3.83-3.56,2.94,2.94,0,0,1,2.1-1,3.27,3.27,0,0,1,2.42,1.05,3.62,3.62,0,0,1,1,2.59,3.42,3.42,0,0,1-1,2.33q-5.75,6.27-13.44,6.27-15.93,0-15.94-18.44A26.94,26.94,0,0,1,483.8,410q5.77-7.84,14.27-7.84A14.59,14.59,0,0,1,509,406.63,15.54,15.54,0,0,1,513.31,417.9Zm-6.64.4a12.12,12.12,0,0,0-2.41-7.34,6.91,6.91,0,0,0-5.56-2.7,10.79,10.79,0,0,0-7.63,3.1,18.92,18.92,0,0,0-5.07,8.87,44.59,44.59,0,0,0,5,.27A69.11,69.11,0,0,0,506.67,418.3Z"/><path class="cls-5" d="M544.25,413.13a3.12,3.12,0,0,1-.77,2.13,2.36,2.36,0,0,1-1.83.87,4.8,4.8,0,0,1-2.37-1.17,4.91,4.91,0,0,0-2.83-1.17,6,6,0,0,0-5.14,2.79,12.82,12.82,0,0,0-2,7.52v4.37a35.6,35.6,0,0,1-1.54,11.6c-.95,2.69-2.19,4-3.7,4q-3,0-3-3a35.81,35.81,0,0,1,.93-4.42,30.38,30.38,0,0,0,.93-7.18q0-9.33-2.66-14.94c0-.11-.66-1.23-1.84-3.37a5.84,5.84,0,0,1-.9-2.6,2.72,2.72,0,0,1,1-2,3.28,3.28,0,0,1,2.23-.93q3.54,0,5.87,8.67,3.47-6.68,10.1-6.67a8.8,8.8,0,0,1,5.4,1.55A4.71,4.71,0,0,1,544.25,413.13Z"/><path class="cls-6" d="M348,530.55q0,5.07-4.86,5.07-3.42,0-7.5-6.37-3-4.71-9.79-18.75-19.79-.3-44.76-9.21Q261.18,522.05,254,522.05a4.73,4.73,0,0,1-4.66-4.66c0-1.41,1.15-3,3.45-4.84l6.86-5.41A119.06,119.06,0,0,0,270.76,497q-8.91-3.53-8.91-7.25a5.23,5.23,0,0,1,1.4-3.65,4.42,4.42,0,0,1,3.37-1.53,12.46,12.46,0,0,1,4.71,1.45q5.49,2.47,6.53,2.89,20.86-27.39,23.46-40,.72-4.31,1.5-8.65,1-3.21,4.87-3.21a4.17,4.17,0,0,1,4.25,2.64,20.88,20.88,0,0,1,1,4.71,44.12,44.12,0,0,0,.88,5.44q4.92,20,19.06,50.34c1.59,0,3.13-.12,4.61-.26l2.07-.15q5.75,0,5.75,5.2,0,5.35-6,5.36h-1.5q2,4.14,7,12.69C347,526.68,348,529.17,348,530.55Zm-27-30.4a294.24,294.24,0,0,1-14.45-38.21A149,149,0,0,1,288,492.87,126.12,126.12,0,0,0,321,500.15Z"/><path class="cls-5" d="M380,518q0,3.46-7,8.9-5,3.81-13,3.8c-5.33,0-9.54-1.75-12.6-5.26s-4.7-8.5-4.7-14.74q0-12.1,5.4-18.86t14.83-6.75q7,0,11.47,3.14c2.83,1.95,4.24,4.3,4.24,7q0,3.38-3.14,3.37a2.35,2.35,0,0,1-2.13-1,35.22,35.22,0,0,0-1.83-3.66q-2.37-2.67-8.61-2.67a11.68,11.68,0,0,0-10.05,4.9q-3.54,4.9-3.55,14,0,14.42,11.47,14.41a15.49,15.49,0,0,0,11.34-4.7l2.06-3a3.37,3.37,0,0,1,2.74-1.8,3.09,3.09,0,0,1,2.17.91A2.76,2.76,0,0,1,380,518Z"/><path class="cls-5" d="M414.55,511.37a73.72,73.72,0,0,1-2.66,19.1c-.89,3.34-2.21,5-4,5s-2.7-1-2.7-3.06a5.34,5.34,0,0,1,.07-1,14.6,14.6,0,0,1-7,1.84q-6.44,0-10.05-3.64t-3.62-10.17q0-6.63,3.9-10.52T398.85,505a13.1,13.1,0,0,1,9.5,3.77q-.63-13.17-9.77-13.17a9.44,9.44,0,0,0-4.35,1.21,9,9,0,0,1-3,1.22,2.77,2.77,0,0,1-2-.93,3,3,0,0,1-.9-2.14q0-2,2.9-3.7a14.33,14.33,0,0,1,7.4-1.83Q414.56,489.43,414.55,511.37Zm-6.76,7.83q0-8.46-8-8.47-8.74,0-8.74,8.41t8.67,8.47a7.8,7.8,0,0,0,5.9-2.22A8.57,8.57,0,0,0,407.79,519.2Z"/><path class="cls-5" d="M458.73,481.13c0-.14-.13,1.53-.4,5q-.43,6-.73,12.83-.37,9.81-.37,20.88c0,1.51,0,3.06,0,4.65s0,2.43,0,2.52q0,5-3.15,5c-2.3,0-3.45-1.86-3.45-5.6,0-.87,0-1.54.06-2a20.15,20.15,0,0,1-14.58,6.2q-6.93,0-11-4.48t-4-12.32q0-10.68,5.87-17.24t15.41-6.57a23.26,23.26,0,0,1,9.16,2,91.41,91.41,0,0,1,.63-11.07c.49-2.26,1.72-3.4,3.69-3.4S458.73,478.7,458.73,481.13Zm-7.47,17.33a16.34,16.34,0,0,0-8.75-2.73,13.23,13.23,0,0,0-10.72,4.69q-3.93,4.68-3.93,12.72,0,5.49,2.64,8.55a9.2,9.2,0,0,0,7.31,3q5.87,0,8.93-3.9c.57-.87,1.14-1.75,1.69-2.64a3.71,3.71,0,0,1,2.4-1.66Q450.83,507.17,451.26,498.46Z"/><path class="cls-5" d="M499.91,503.1a5.81,5.81,0,0,1-2.4,5.13c-.71.49-3,1.13-6.77,1.9a64.88,64.88,0,0,1-12.9,1.57q-2.43,0-5.87-.33,0,12.57,9.57,12.57a8.11,8.11,0,0,0,4.77-1.5,33.74,33.74,0,0,0,3.83-3.57,2.93,2.93,0,0,1,2.1-1,3.25,3.25,0,0,1,2.42,1,3.56,3.56,0,0,1,1,2.58,3.41,3.41,0,0,1-1,2.33q-5.73,6.27-13.44,6.27-15.93,0-15.94-18.44a26.94,26.94,0,0,1,5.07-16.4q5.78-7.83,14.27-7.83a14.57,14.57,0,0,1,10.94,4.43A15.51,15.51,0,0,1,499.91,503.1Zm-6.63.4a12.12,12.12,0,0,0-2.42-7.34,6.9,6.9,0,0,0-5.55-2.7,10.86,10.86,0,0,0-7.64,3.1,18.92,18.92,0,0,0-5.07,8.87,44.59,44.59,0,0,0,5,.27A68.7,68.7,0,0,0,493.28,503.5Z"/><path class="cls-5" d="M552.63,508.37q0,25.53-6.07,25.54-2.34,0-2.34-2.94s.38-2.56,1.14-7.62a102.8,102.8,0,0,0,1.13-15.12q0-12.57-5.93-12.57-5.2,0-6.84,6.34-1.23,4.86-1.23,19.14a39.63,39.63,0,0,0,.33,4.85c.22,1.77.33,2.8.33,3.12q0,3.3-3.13,3.3-3.76,0-3.77-12,0-5.07.38-10.59c.26-3.67.39-5.65.39-5.91,0-3.29-1.74-4.94-5.2-4.94a7.38,7.38,0,0,0-7.07,4.37q-2.13,4.23-2.14,13.4,0,5.91.34,11a39.17,39.17,0,0,0,.33,4.28,2.71,2.71,0,0,1-.92,2.1,3.33,3.33,0,0,1-2.35.84q-3,0-3.66-5.67a84,84,0,0,1-.24-8.47,154,154,0,0,1,2.34-27.31,22.05,22.05,0,0,1,1.53-5.67,3.05,3.05,0,0,1,2.9-1.7c2.09,0,3.14,1.12,3.14,3.34L514.51,497a9.47,9.47,0,0,1,8.21-4,7.72,7.72,0,0,1,6.7,3.53q4.23-7,11.93-7Q552.63,489.5,552.63,508.37Z"/><path class="cls-5" d="M569.83,493.73q0,20.1-1.44,29.71a18.74,18.74,0,0,1-1.26,5.2,3,3,0,0,1-2.9,1.77,3.18,3.18,0,0,1-2.27-.89,2.81,2.81,0,0,1-.93-2.11c0,.11.17-.66.53-2.31a57.26,57.26,0,0,0,1-6.36,107.83,107.83,0,0,0,.54-11.34c0-1.82,0-3.75-.07-5.77s-.07-3.12-.07-3.3a17.64,17.64,0,0,1,.77-6.27,3,3,0,0,1,3-1.93Q569.83,490.13,569.83,493.73Zm1.43-12.7q0,4.73-4.63,4.73a4.22,4.22,0,0,1-3.15-1.3,4.29,4.29,0,0,1-1.29-3.13,4.78,4.78,0,0,1,4.84-4.8,4,4,0,0,1,3.07,1.23A4.59,4.59,0,0,1,571.26,481Z"/><path class="cls-5" d="M615.51,518q0,3.46-7,8.9-5,3.81-13,3.8t-12.61-5.26q-4.7-5.37-4.7-14.74,0-12.1,5.4-18.86t14.84-6.75q7,0,11.47,3.14c2.82,1.95,4.23,4.3,4.23,7q0,3.38-3.13,3.37a2.34,2.34,0,0,1-2.13-1A35.61,35.61,0,0,0,607,493.9c-1.58-1.78-4.44-2.67-8.6-2.67a11.67,11.67,0,0,0-10,4.9q-3.55,4.9-3.55,14,0,14.42,11.47,14.41a15.45,15.45,0,0,0,11.33-4.7l2.07-3a3.35,3.35,0,0,1,2.73-1.8,3.07,3.07,0,0,1,2.17.91A2.74,2.74,0,0,1,615.51,518Z"/><path class="cls-7" d="M339.7,568q0,14.77-7.94,23.8t-20.53,9a27.59,27.59,0,0,1-12.87-2.72c-3.24-1.73-4.85-3.71-4.85-5.92v-.27a5.89,5.89,0,0,1,1.36-3.91,4.18,4.18,0,0,1,3.33-1.63c.61,0,2.37.62,5.26,1.85a20.23,20.23,0,0,0,7.88,1.86,15.19,15.19,0,0,0,12.27-6q4.84-5.94,4.85-15.18a18.64,18.64,0,0,0-7.36-15.34q-7.37-5.85-19.36-5.84a83.85,83.85,0,0,0-9.93.82q1,15.65,1,24.1,0,18.33-.77,32.72a159.93,159.93,0,0,1-4.14,29.94c-.76,3.06-2.4,4.58-4.91,4.58q-5.78,0-5.78-7.8,0,.88,3.22-24.92a198.78,198.78,0,0,0,1.09-23.12q0-19-.87-32.29a37.42,37.42,0,0,0-8.46,6.44q-3.48,3.38-5.51,3.38a5.39,5.39,0,0,1-3.9-1.64,5.21,5.21,0,0,1-1.66-3.81c0-1.6,1.53-3.88,4.58-6.82q13-12.49,34.63-12.49,18.1,0,28.74,8.43T339.7,568Z"/><path class="cls-5" d="M361.8,582.19a3.12,3.12,0,0,1-.76,2.14,2.39,2.39,0,0,1-1.84.87,4.8,4.8,0,0,1-2.37-1.17,4.91,4.91,0,0,0-2.83-1.17,6,6,0,0,0-5.13,2.79,12.71,12.71,0,0,0-2,7.51v4.37a35.36,35.36,0,0,1-1.54,11.61c-.95,2.69-2.19,4-3.7,4q-3,0-3-3a35.81,35.81,0,0,1,.93-4.42,29.91,29.91,0,0,0,.94-7.18q0-9.35-2.67-14.94c-.05-.11-.66-1.24-1.83-3.37a5.88,5.88,0,0,1-.9-2.6,2.69,2.69,0,0,1,1-2,3.28,3.28,0,0,1,2.23-.93q3.54,0,5.87,8.67,3.47-6.67,10.1-6.67a8.7,8.7,0,0,1,5.4,1.55A4.7,4.7,0,0,1,361.8,582.19Z"/><path class="cls-5" d="M404.89,591.2q0,9.79-5.74,15.62t-15.3,5.82q-7.94,0-12.44-5.42t-4.5-15.06q0-10.12,5.43-15.73t14.81-5.5A16.29,16.29,0,0,1,400,576.49Q404.88,582.07,404.89,591.2Zm-6.64.06q0-6.69-3.25-10.48a11.11,11.11,0,0,0-8.88-3.79q-12.58,0-12.57,15.11,0,7,2.73,10.72a9.1,9.1,0,0,0,7.83,3.75q6.61,0,10.37-4T398.25,591.26Z"/><path class="cls-5" d="M443.33,571.13c0,1.73-1,2.6-2.93,2.6-.27,0-.84-.05-1.7-.14-1.12-.11-2-.19-2.77-.23a15.14,15.14,0,0,1,4,10.54,12.62,12.62,0,0,1-4.18,9.75,15.56,15.56,0,0,1-10.89,3.82c-1,0-2.6-.12-4.8-.34a16.55,16.55,0,0,0-4.5,5.07q6.5-.76,8.6-.77,13.68,0,13.67,9.44a10.09,10.09,0,0,1-5.15,9q-5.15,3.25-14.39,3.25-5.79,0-9.27-2.23-3.23-2.1-3.23-5.27a2.52,2.52,0,0,1,1-2,3.37,3.37,0,0,1,2.26-.83,2.66,2.66,0,0,1,1.74.77c.55.6,1.11,1.19,1.67,1.76q1.62,1.63,6.2,1.64,5.86,0,9.13-1.54c2.11-1,3.17-2.33,3.17-4.06q0-3.78-8.74-3.77a52.28,52.28,0,0,0-5.45.38c-2.25.26-3.83.38-4.71.38-2.16,0-3.24-.75-3.24-2.26q0-3.17,6.24-10.77-5.15-3.63-5.14-10.47A14.71,14.71,0,0,1,414.46,574a15.15,15.15,0,0,1,11.1-4.5,17.2,17.2,0,0,1,3.2.34q1.1-1.64,7.1-1.64Q443.33,568.19,443.33,571.13Zm-9.7,12.13a8,8,0,0,0-2.22-5.93,7.88,7.88,0,0,0-5.85-2.24,8.59,8.59,0,0,0-6.54,2.69,9.74,9.74,0,0,0-2.53,7q0,7,8.34,7a9,9,0,0,0,6.5-2.22A8.27,8.27,0,0,0,433.63,583.26Z"/><path class="cls-5" d="M472.27,582.19a3.12,3.12,0,0,1-.77,2.14,2.36,2.36,0,0,1-1.83.87A4.8,4.8,0,0,1,467.3,584a4.91,4.91,0,0,0-2.83-1.17,6,6,0,0,0-5.14,2.79,12.79,12.79,0,0,0-2,7.51v4.37a35.36,35.36,0,0,1-1.54,11.61c-.95,2.69-2.19,4-3.7,4q-3,0-3-3a35.81,35.81,0,0,1,.93-4.42,30.42,30.42,0,0,0,.94-7.18q0-9.35-2.67-14.94c-.05-.11-.66-1.24-1.84-3.37a5.88,5.88,0,0,1-.9-2.6,2.7,2.7,0,0,1,1-2,3.28,3.28,0,0,1,2.23-.93q3.54,0,5.87,8.67,3.46-6.67,10.1-6.67a8.72,8.72,0,0,1,5.4,1.55A4.7,4.7,0,0,1,472.27,582.19Z"/><path class="cls-5" d="M506.25,595.23a73.88,73.88,0,0,1-2.67,19.11q-1.33,5-4,5c-1.8,0-2.7-1-2.7-3.07a5.16,5.16,0,0,1,.07-1,14.67,14.67,0,0,1-7,1.83q-6.44,0-10.05-3.63t-3.62-10.17q0-6.64,3.9-10.52t10.37-3.89a13.12,13.12,0,0,1,9.51,3.77q-.65-13.17-9.77-13.17a9.47,9.47,0,0,0-4.36,1.22,9.22,9.22,0,0,1-3,1.21,2.77,2.77,0,0,1-2-.93,3,3,0,0,1-.9-2.13q0-2,2.9-3.7a14.24,14.24,0,0,1,7.41-1.84Q506.24,573.29,506.25,595.23Zm-6.77,7.84q0-8.48-8-8.47-8.73,0-8.74,8.4t8.67,8.47a7.8,7.8,0,0,0,5.9-2.22A8.52,8.52,0,0,0,499.48,603.07Z"/><path class="cls-5" d="M562.1,592.23q0,25.54-6.07,25.54c-1.56,0-2.34-1-2.34-2.93,0,0,.38-2.56,1.14-7.62A103,103,0,0,0,556,592.1q0-12.57-5.93-12.57-5.21,0-6.84,6.33Q542,590.74,542,605a39.5,39.5,0,0,0,.33,4.85q.33,2.65.33,3.12,0,3.3-3.13,3.3-3.76,0-3.77-12,0-5.06.38-10.58t.39-5.92c0-3.29-1.74-4.93-5.2-4.93a7.37,7.37,0,0,0-7.07,4.36c-1.42,2.83-2.14,7.29-2.14,13.41,0,3.93.12,7.59.34,11a40.41,40.41,0,0,0,.33,4.29,2.7,2.7,0,0,1-.92,2.1,3.37,3.37,0,0,1-2.35.83q-3,0-3.66-5.67a84,84,0,0,1-.24-8.47,154,154,0,0,1,2.34-27.3,21.8,21.8,0,0,1,1.53-5.67,3.05,3.05,0,0,1,2.9-1.7q3.14,0,3.14,3.33L524,580.83a9.48,9.48,0,0,1,8.21-4,7.7,7.7,0,0,1,6.7,3.54q4.23-7,11.94-7Q562.1,573.36,562.1,592.23Z"/><circle class="cls-8" cx="747.83" cy="586.18" r="65.49"/><path class="cls-9" d="M656.28,567.44c-8.74,17.74-2.53,49.19-2.53,49.19s3.88,5.45,7.81-4.38,9.33.86,12.47-8.51,13.65-11.92,17.18-19.09c8.73-17.74,3.83-27.5-5.82-32.25S665,549.7,656.28,567.44Z"/><path class="cls-9" d="M835.68,567.06c11.17,16.31,9.51,48.32,9.51,48.32s-3.07,6-8.36-3.21-9.11,2.18-13.55-6.66-15.21-9.85-19.73-16.44c-11.17-16.31-7.7-26.67,1.17-32.75S824.5,550.75,835.68,567.06Z"/><circle class="cls-10" cx="747.83" cy="586.18" r="43.75" transform="translate(-195.46 700.48) rotate(-45)"/><path class="cls-8" d="M743.47,573.74a4.3,4.3,0,0,0-.51.63,12.58,12.58,0,0,0-1,1.76,11.5,11.5,0,0,0-.79,5.52,15.13,15.13,0,0,0,1.55,5.11,18.57,18.57,0,0,0,1.07,1.67,6.08,6.08,0,0,0,.54.65,3.79,3.79,0,0,0,.47-.66,13.29,13.29,0,0,0,.89-1.81,12.14,12.14,0,0,0,.62-5.43,16.41,16.41,0,0,0-1.4-5,18.06,18.06,0,0,0-.95-1.71A5.47,5.47,0,0,0,743.47,573.74Z"/><path class="cls-8" d="M731,561.21a5.5,5.5,0,0,0-.67.64,16.77,16.77,0,0,0-1.47,1.86,15.4,15.4,0,0,0-2.22,6.26,17.9,17.9,0,0,0,.51,6.45,19.18,19.18,0,0,0,.82,2.15,6.62,6.62,0,0,0,.44.82,5.4,5.4,0,0,0,.57-.75,20.75,20.75,0,0,0,1.13-2,19.93,19.93,0,0,0,1.67-6.13,25.4,25.4,0,0,0,0-6.19c-.08-.86-.36-1.66-.45-2.2A6.72,6.72,0,0,0,731,561.21Z"/><path class="cls-8" d="M714.59,571.72a6.45,6.45,0,0,0-.64.6,17.36,17.36,0,0,0-1.35,1.7,13.41,13.41,0,0,0-2,5.77c0,2.24.23,4.48,1.26,6.06a12.6,12.6,0,0,0,1.26,1.81,4.43,4.43,0,0,0,.59.62,5.88,5.88,0,0,0,.39-.81c.15-.48.53-1.18.71-1.94a25.89,25.89,0,0,0,.94-5.39,19.67,19.67,0,0,0-.27-5.61,17,17,0,0,0-.57-2A5.12,5.12,0,0,0,714.59,571.72Z"/><path class="cls-8" d="M728.81,585.45a3.81,3.81,0,0,0-.57.48,9.3,9.3,0,0,0-1.19,1.48,5.92,5.92,0,0,0-.88,2.31,9,9,0,0,0-.19,2.7,8.63,8.63,0,0,0,2.06,4.71,10.51,10.51,0,0,0,1.42,1.25,3.47,3.47,0,0,0,.65.4,5.29,5.29,0,0,0,.29-.72,16.47,16.47,0,0,0,.5-1.69,15.13,15.13,0,0,0,.22-4.42,15.37,15.37,0,0,0-.41-2.25c-.21-.74-.52-1.43-.72-2s-.6-1.16-.77-1.56A6.28,6.28,0,0,0,728.81,585.45Z"/><path class="cls-8" d="M757.26,564.85a6.33,6.33,0,0,0,0,.79c.1.44.11,1.14.29,1.78a18.43,18.43,0,0,0,1.62,4.34,15.25,15.25,0,0,0,2.82,3.93c.48.52,1.11.92,1.44,1.23a6.68,6.68,0,0,0,.68.45,3.42,3.42,0,0,0,.29-.71,11.15,11.15,0,0,0,.41-1.85,9.83,9.83,0,0,0-1-5.17,9.7,9.7,0,0,0-3.94-3.92A12.29,12.29,0,0,0,758,565,4.11,4.11,0,0,0,757.26,564.85Z"/><path class="cls-8" d="M764.15,583.43a8.28,8.28,0,0,0-.19.82,18,18,0,0,1-.37,1.89,36,36,0,0,0-.58,5.08,24.77,24.77,0,0,0,.39,5.23c.2.79.36,1.47.48,1.93a5.67,5.67,0,0,0,.27.8,5.07,5.07,0,0,0,.69-.52,10,10,0,0,0,1.46-1.6,10.83,10.83,0,0,0,1.87-5.71,9.79,9.79,0,0,0-1.71-5.89,6.79,6.79,0,0,0-1.57-1.57A4.12,4.12,0,0,0,764.15,583.43Z"/><path class="cls-8" d="M779.67,571.72s0,.28,0,.75a12.6,12.6,0,0,1-.13,1.62,15.76,15.76,0,0,0,.27,4.34,13.63,13.63,0,0,0,1.75,4.21c.36.58.81,1.07,1.06,1.43a5.59,5.59,0,0,0,.52.57,3.68,3.68,0,0,0,.49-.59,9,9,0,0,0,.89-1.63,8.75,8.75,0,0,0,.34-5,8.42,8.42,0,0,0-2.64-4.52,5.18,5.18,0,0,0-1.76-1A2.77,2.77,0,0,0,779.67,571.72Z"/><path class="cls-8" d="M751.22,615.51s0-.27.08-.75a12.9,12.9,0,0,1,.26-1.6,16.26,16.26,0,0,0,.09-4.34,14.1,14.1,0,0,0-1.41-4.34c-.32-.61-.73-1.13-1-1.51a4.7,4.7,0,0,0-.47-.61,3.79,3.79,0,0,0-.53.55,8.14,8.14,0,0,0-1,1.55,8.81,8.81,0,0,0-.74,4.94,8.47,8.47,0,0,0,2.27,4.72,5.27,5.27,0,0,0,1.67,1.16A2.83,2.83,0,0,0,751.22,615.51Z"/><path class="cls-8" d="M732.49,617l-.08-.75c-.1-.36,0-1-.08-1.62a16.27,16.27,0,0,0-.81-4.27,14.06,14.06,0,0,0-2.28-4c-.44-.54-1-1-1.24-1.28a5.21,5.21,0,0,0-.59-.5,4.09,4.09,0,0,0-.41.65,8,8,0,0,0-.37,6.71,8.5,8.5,0,0,0,3.2,4.15,5.3,5.3,0,0,0,1.88.78A2.68,2.68,0,0,0,732.49,617Z"/><path class="cls-8" d="M768,617s0-.28.07-.75a11.8,11.8,0,0,0,.08-1.62,15.91,15.91,0,0,1,.82-4.27,13.6,13.6,0,0,1,2.28-4,17.55,17.55,0,0,1,1.24-1.28,4.34,4.34,0,0,1,.59-.5,3.72,3.72,0,0,1,.4.65,8.18,8.18,0,0,1,.68,1.72,8.91,8.91,0,0,1-.3,5,8.52,8.52,0,0,1-3.21,4.15,5.19,5.19,0,0,1-1.87.78A2.68,2.68,0,0,1,768,617Z"/><path class="cls-8" d="M731.94,512.3a44.48,44.48,0,1,0,44.48-44.48A44.48,44.48,0,0,0,731.94,512.3Z"/><path class="cls-8" d="M674.76,512.3a44.48,44.48,0,1,0,44.48-44.48A44.49,44.49,0,0,0,674.76,512.3Z"/><path class="cls-11" d="M718.1,478.07a34.18,34.18,0,0,1,29.73,17.32,34.23,34.23,0,1,1,0,33.81,34.22,34.22,0,1,1-29.73-51.13Z"/><path class="cls-5" d="M755.31,511.46a25.37,25.37,0,1,0,25.37-25.37A25.37,25.37,0,0,0,755.31,511.46Z"/><path class="cls-9" d="M761.49,514.52a15.94,15.94,0,1,0,15.94-15.94A15.94,15.94,0,0,0,761.49,514.52Z"/><path class="cls-12" d="M764.74,514.52a12.69,12.69,0,1,0,12.69-12.69A12.7,12.7,0,0,0,764.74,514.52Z"/><path class="cls-5" d="M767.83,515.84a3.23,3.23,0,1,0,3.22-3.23A3.22,3.22,0,0,0,767.83,515.84Z"/><path class="cls-5" d="M689.61,511.46A25.37,25.37,0,1,0,715,486.09,25.37,25.37,0,0,0,689.61,511.46Z"/><path class="cls-13" d="M740.48,529a2.88,2.88,0,0,1,2.39-1.28s2.29-5.89,5-5.89,4.92,5.89,4.92,5.89a2.87,2.87,0,0,1,2.64,4l-5,11.9a2.87,2.87,0,0,1-5.29,0l-5-11.9A2.86,2.86,0,0,1,740.48,529Z"/><path class="cls-9" d="M695.79,514.52a15.94,15.94,0,1,0,15.94-15.94A15.94,15.94,0,0,0,695.79,514.52Z"/><path class="cls-12" d="M699,514.52a12.69,12.69,0,1,0,12.69-12.69A12.7,12.7,0,0,0,699,514.52Z"/><path class="cls-5" d="M702.47,514.52a3.23,3.23,0,1,0,3.23-3.22A3.23,3.23,0,0,0,702.47,514.52Z"/><path class="cls-8" d="M767.83,469.8a55.13,55.13,0,0,1,13.23-6.44c8.25-2.81,14.22.7,18.84-9.48,1.17,10.71-6.08,21.3-6.08,21.3Z"/><path class="cls-8" d="M727.84,469.8a55.38,55.38,0,0,0-13.23-6.44c-8.26-2.81-14.23.7-18.85-9.48-1.17,10.71,6.09,21.3,6.09,21.3Z"/><path class="cls-8" d="M755.82,480.88s.82-16.35,7.54-23.67c-6.85.61-10.67,4.82-12.37,14.81.79-13.06-4.81-14.72-4.81-14.72s.83,13.37-2.37,14.2c-5-8.9-9.26-8.51-12.89-8.33,7.76,5.44,10.46,21,10.46,21Z"/><path class="cls-13" d="M760.1,639.87a4.93,4.93,0,0,1,4.43,2.8,4.91,4.91,0,0,1,8.87,0,4.93,4.93,0,0,1,9.38,2.14V655a4.93,4.93,0,0,1-9.38,2.15,4.91,4.91,0,0,1-8.87,0,4.93,4.93,0,0,1-9.37-2.15V644.81A4.94,4.94,0,0,1,760.1,639.87Z"/><path class="cls-13" d="M717.82,639.87a4.94,4.94,0,0,1,4.44,2.8,4.91,4.91,0,0,1,8.87,0,4.93,4.93,0,0,1,9.38,2.14V655a4.93,4.93,0,0,1-9.38,2.15,4.91,4.91,0,0,1-8.87,0,4.93,4.93,0,0,1-9.38-2.15V644.81A4.94,4.94,0,0,1,717.82,639.87Z"/><path class="cls-14" d="M871.25,639.66s-23.36-20.49-16-47.63,29.84-40.16,29.84-40.16S916.91,618.74,871.25,639.66Z"/><polygon class="cls-15" points="773.28 665.63 858.06 633.6 901.59 633.6 862.64 617.95 763.2 651.07 699.5 654.02 635.38 703.42 609.93 700.48 309.84 699.48 166.11 656.71 0 633.6 0 734.87 152.37 711.69 303.1 741.97 387.23 736.51 602.22 730.37 688.51 737.24 761.83 756.17 805.36 727.78 851.19 710.9 809.94 703.58 759.54 727.78 661.38 709 707.11 668.36 773.28 665.63"/><path class="cls-16" d="M303.39,741.53l84.21-5.46,215.18-6.14,86.37,6.87,73.39,18.93,43.57-28.4L852,710.46l-6.88-1.22c-3.69.35-7.05,1-9.17,1.36-20.46,3.74-38.57,13.54-58.3,19.58-28.26,8.67-56.18-.12-84.53-3.35-16.89-1.92-33.58-5.41-50.4-7.88A230.43,230.43,0,0,0,594,717.17c-18.3,1.18-36.54,3.09-54.84,4.25s-36.56.48-54.92.34c-37.46-.3-74.86,2.57-112.29,3.48-38.69.93-76.48-1.15-114.27-10.13-14.26-3.39-28.37-7.46-42.41-11.68-12.9-3.88-25.5-8-38.85-9.89-27.49-3.87-55.36,0-82.6,4-18.14,2.68-41,15.26-57.6,2.09-8.83-7-14.18-19.27-16.32-30.21s-1.67-22.5.08-33.53L0,633.16V734.43l152.5-23.18Z"/><path class="cls-16" d="M898.08,630.3a189.52,189.52,0,0,0-26.53,1.82,177,177,0,0,0-40.26,10c-9.59,3.54-19,7.55-28.58,11.09-11.55,4.27-23.59,6.25-35.73,8-16.16,2.33-47.49-4.48-60.44,6.37-10.83,9.07-43.33,30-42.42,44.36h0c.51,0,47.35-40.64,47.35-40.64l69-3.12,87.64-32h45Z"/><path class="cls-17" d="M868.61,642.36c22.24-47.22,43.06-65.08,49-69.5C933.68,615,876.66,639.19,868.61,642.36Z"/><path class="cls-17" d="M885.57,552.82c-17.86,51-15.46,79.25-14.28,86.83C913.71,620.17,889.21,561,885.57,552.82Z"/><path class="cls-15" d="M46.85,12.46s53,51.63,101.3,65,96.44,23.78,149.7,8.78S360.7,66.67,360.7,66.67s2.32-1.28-.49,2.28-36.56,11.84-48,15.73-37.83,14.78-53.91,17-29.33-.71-52.8-3S145.54,86.44,150,92s37.35,31,43.48,41.94,16.48,51.9,26.82,66.42S250.71,236.26,257,243s4.35,6.86-4.35-2.55-34.29-36.52-33.94-37.1S235.64,267.14,230,305.47c0,0-2.29,12.52-2.07-8.34s-1.88-65-14.9-99.88-20.32-54.12-30-64.69-37.24-31.15-55.59-45.21S42.49,49,30.3,32.42"/><path class="cls-15" d="M215,103.37l.87.08c7,.7,53.93,6,78.17,26.73,26.24,22.39,84.09,60.07,100.2,104.3l1.69-1.67A127.05,127.05,0,0,0,374,196.92,306.24,306.24,0,0,0,344.12,167s82.55,45.36,107.68,56l-23.32-13.47s-56.51-28.18-84-45.69-32-33.49-52.61-44.62S234.41,96,234.41,96A38.35,38.35,0,0,0,215,103.37Z"/><path class="cls-15" d="M263.46,156.2s-1.79-10.14-21.36-26.07S200,95.29,200,95.29l10.74-.2,9.05,2.63A227,227,0,0,0,243.58,125a177.69,177.69,0,0,1,23.69,29C267.79,154.7,270.44,168.63,263.46,156.2Z"/><path class="cls-15" d="M318.24,143.31s16.28,13.82,81.74-6.92l.79,1.66s-43.16,18.6-81.55,10.47Z"/><path class="cls-16" d="M46.79,7.6c2.44.82,44,50.48,98.33,63.84s85.81,25.4,116.63,21.69,9.16.22-2.8,2c0,0-19.48,4.86-35.35,2.22s-70.06-14.86-81.45-13.87-4.92,5-30.2-8.93"/><path class="cls-14" d="M447.41,220.49s15.88-7.65,28.4,2.23a40.63,40.63,0,0,1,14.36,24.48S448.21,249,447.41,220.49Z"/><path class="cls-17" d="M489.57,247.22c-22.65-20.63-37.94-25.65-42.16-26.71C448.17,247,484.5,247.3,489.57,247.22Z"/><path class="cls-14" d="M438.58,218.27s14.4,10.17,11.84,25.92A40.64,40.64,0,0,1,436,268.63S414.08,232.8,438.58,218.27Z"/><path class="cls-17" d="M435.68,268.11c7-29.81,4-45.62,2.88-49.82C415.8,231.8,433.15,263.72,435.68,268.11Z"/><path class="cls-14" d="M439.58,216s17.21,3.81,27.14-8.69a40.61,40.61,0,0,0,8.36-27.12S433.84,188.11,439.58,216Z"/><path class="cls-17" d="M474.5,180.34C457.17,205.6,443.44,214,439.58,216,434.26,190.06,469.54,181.42,474.5,180.34Z"/><path class="cls-14" d="M418.71,202.74s13.73,3,21.64-6.93A32.35,32.35,0,0,0,447,174.18S414.13,180.48,418.71,202.74Z"/><path class="cls-17" d="M446.56,174.28c-13.82,20.15-24.77,26.84-27.85,28.44C414.46,182,442.61,175.14,446.56,174.28Z"/><path class="cls-14" d="M385.6,208.63s7.18,12.08,19.86,11a32.4,32.4,0,0,0,20.33-10S398.68,190.05,385.6,208.63Z"/><path class="cls-17" d="M425.41,209.43c-24.15,3.74-36.53.34-39.8-.82C397.77,191.36,422.07,207.14,425.41,209.43Z"/><path class="cls-14" d="M393.55,231.05s-9.26,10.58-4.32,22.31A32.4,32.4,0,0,0,405,269.6S415.27,237.72,393.55,231.05Z"/><path class="cls-14" d="M384.67,218.23s-13.51,3.91-15.69,16.44a32.43,32.43,0,0,0,4.51,22.19S399.35,235.57,384.67,218.23Z"/><path class="cls-17" d="M373.85,256.55c2.48-24.31,8.89-35.43,10.83-38.31C398.31,234.37,376.9,253.9,373.85,256.55Z"/><path class="cls-14" d="M364.46,145.79s13-5.43,13.68-18.14a32.32,32.32,0,0,0-7-21.51S347.88,130.26,364.46,145.79Z"/><path class="cls-17" d="M370.8,106.48c.33,24.43-4.76,36.22-6.35,39.3C349.05,131.33,368.06,109.47,370.8,106.48Z"/><path class="cls-14" d="M371.2,144.39s14,3.84,16.48,16.78a33.51,33.51,0,0,1-4.32,23S356.27,162.56,371.2,144.39Z"/><path class="cls-17" d="M383,183.89c-2.94-25.13-9.75-36.54-11.8-39.48C357.33,161.3,379.78,181.19,383,183.89Z"/><path class="cls-14" d="M363.72,68.65s8.56-15.41,24.49-14.55a40.61,40.61,0,0,1,25.85,11.72S380.8,91.46,363.72,68.65Z"/><path class="cls-17" d="M413.58,66.17c-30.4-3.79-45.79.94-49.85,2.5C379.62,89.85,409.49,69.16,413.58,66.17Z"/><path class="cls-14" d="M355.23,71.94s17.63,0,24.62,14.34a40.6,40.6,0,0,1,2.3,28.29S343.59,97.94,355.23,71.94Z"/><path class="cls-17" d="M381.61,114.32C370.16,85.91,358.56,74.75,355.23,72,344.42,96.13,377,112.2,381.61,114.32Z"/><path class="cls-14" d="M363.1,19.79S334,50,354.75,69.52c0,0,16.25-6.82,17.16-22.75a40.65,40.65,0,0,0-8.81-27"/><path class="cls-17" d="M362.69,20.23c.42,30.63-6,45.41-8,49.27-19.31-18.12,4.54-45.53,8-49.27"/><path class="cls-14" d="M329.87,76.79s13-5.43,13.69-18.14a32.4,32.4,0,0,0-7-21.52S313.29,61.25,329.87,76.79Z"/><path class="cls-17" d="M336.21,37.48c.34,24.43-4.75,36.22-6.35,39.3C314.46,62.33,333.48,40.46,336.21,37.48Z"/><path class="cls-14" d="M336.62,75.39s14,3.84,16.48,16.78a33.57,33.57,0,0,1-4.32,23S321.69,93.56,336.62,75.39Z"/><path class="cls-17" d="M348.4,114.88c-2.94-25.12-9.75-36.53-11.8-39.48C322.74,92.3,345.19,112.19,348.4,114.88Z"/><path class="cls-14" d="M260.87,248.19s13.63.58,18.57,11.9a31.47,31.47,0,0,1,.85,22S251,267.92,260.87,248.19Z"/><path class="cls-17" d="M279.88,281.84c-7.93-22.36-16.53-31.37-19-33.64C251.71,266.55,276.38,280.05,279.88,281.84Z"/><path class="cls-14" d="M255.65,243.45s6.11,12.2-1.39,22a31.4,31.4,0,0,1-18.78,11.41S233.62,244.41,255.65,243.45Z"/><path class="cls-17" d="M235.46,276.41c15.7-17.78,19.4-29.68,20.17-33C235.16,244.36,235.33,272.48,235.46,276.41Z"/><path class="cls-14" d="M257.16,242.27s10.35,8.9,21.69,4a31.44,31.44,0,0,0,15.62-15.46S263.43,221.13,257.16,242.27Z"/><path class="cls-17" d="M294,230.68c-21.06,10.92-33.5,11.62-36.87,11.58C263,222.61,290.26,229.61,294,230.68Z"/><path class="cls-14" d="M243.5,227.58s8.26,7.09,17.3,3.18a25.07,25.07,0,0,0,12.46-12.32S248.5,210.72,243.5,227.58Z"/><path class="cls-17" d="M272.91,218.34c-16.8,8.7-26.72,9.26-29.41,9.23C248.17,211.9,269.89,217.48,272.91,218.34Z"/><path class="cls-14" d="M246.8,231.76S249,242.81,240.91,249a25.94,25.94,0,0,1-17.44,5S229.05,227.73,246.8,231.76Z"/><path class="cls-17" d="M223.55,253.61c16.37-10.74,21.91-19.41,23.24-21.85C230.29,228,224.31,250.46,223.55,253.61Z"/><path class="cls-14" d="M265.59,154.61s22,.93,29.91,19.18,1.37,35.38,1.37,35.38S249.7,186.39,265.59,154.61Z"/><path class="cls-17" d="M296.21,208.84c-12.76-36-26.62-50.56-30.64-54.21C250.83,184.19,290.58,205.94,296.21,208.84Z"/><path class="cls-14" d="M257.18,147s9.85,19.66-2.24,35.47-30.27,18.37-30.27,18.37S221.68,148.52,257.18,147Z"/><path class="cls-17" d="M224.64,200.08c25.3-28.65,31.27-47.82,32.51-53.1C224.16,148.43,224.44,193.75,224.64,200.08Z"/><path class="cls-14" d="M259.61,145.08s16.68,14.33,34.95,6.43,25.18-24.9,25.18-24.9S269.72,111,259.61,145.08Z"/><path class="cls-17" d="M319,126.41c-33.94,17.58-54,18.72-59.41,18.64C269,113.4,312.94,124.67,319,126.41Z"/><path class="cls-14" d="M237.6,121.4s13.3,11.43,27.88,5.13a40.37,40.37,0,0,0,20.07-19.86S245.66,94.23,237.6,121.4Z"/><path class="cls-17" d="M285,106.51c-27.07,14-43.06,14.93-47.39,14.87C245.12,96.13,280.13,105.13,285,106.51Z"/><path class="cls-14" d="M242.93,128.14s3.56,17.8-9.51,27.76a41.84,41.84,0,0,1-28.1,8S214.32,121.64,242.93,128.14Z"/><path class="cls-17" d="M205.46,163.35c26.38-17.31,35.3-31.28,37.45-35.22C216.31,122.11,206.68,158.27,205.46,163.35Z"/><path class="cls-14" d="M218.11,365.42s-22-47.56,10.49-62c0,0,16.37,14.68,10.92,33.82"/><path class="cls-17" d="M217.81,364.74c13-35.93,11.54-55.95,10.77-61.32-30.17,13.46-13.28,55.51-10.77,61.32"/><path class="cls-14" d="M227,292.17s-4.89,21.44-24.27,26-35-5-35-5S198.56,270.81,227,292.17Z"/><path class="cls-17" d="M168.1,312.52c37.73-6.06,54.52-17.08,58.84-20.36C200.53,272.32,172,307.5,168.1,312.52Z"/><path class="cls-14" d="M288.2,316.18S259.49,272.36,230,292.25c0,0,3.78,21.66,22.91,27.17"/><path class="cls-17" d="M287.79,315.57c-37.38-8-53.59-19.83-57.73-23.33,27.39-18.47,54.13,18.12,57.73,23.33"/><path class="cls-14" d="M228.08,260s3,17.28,18.27,21.67a40.37,40.37,0,0,0,28.12-2.59S251.57,244.12,228.08,260Z"/><path class="cls-17" d="M274.14,278.58c-29.81-6.36-42.74-15.82-46-18.61C249.94,245.24,271.27,274.43,274.14,278.58Z"/><path class="cls-14" d="M227.91,268.57s-8.55,16-25,15.4a41.79,41.79,0,0,1-26.81-11.64S210,245.38,227.91,268.57Z"/><path class="cls-17" d="M176.61,272c31.37,3.39,47.14-1.73,51.29-3.41C211.19,247,180.78,268.81,176.61,272Z"/><path class="cls-14" d="M368.78,200.57s9.26,11.23,3.79,23.22a33.51,33.51,0,0,1-16.81,16.31S346.11,206.81,368.78,200.57Z"/><path class="cls-17" d="M355.63,239.63c12.09-22.21,13.11-35.46,13.14-39C347.69,206.39,354.56,235.58,355.63,239.63Z"/><path class="cls-14" d="M398.41,248.41s20.22.49,27.84,17.14,1.86,32.52,1.86,32.52S384.32,277.92,398.41,248.41Z"/><path class="cls-17" d="M427.49,297.78c-12.35-32.93-25.34-46-29.09-49.35C385.33,275.87,422.26,295.21,427.49,297.78Z"/><path class="cls-14" d="M390.55,241.53s9.39,17.92-1.47,32.67-27.53,17.41-27.53,17.41S357.91,243.55,390.55,241.53Z"/><path class="cls-17" d="M361.51,290.93c22.79-26.78,27.95-44.52,29-49.4C360.19,243.43,361.22,285.11,361.51,290.93Z"/><path class="cls-14" d="M392.75,239.75s15.58,12.89,32.26,5.33,22.73-23.33,22.73-23.33S401.48,208.24,392.75,239.75Z"/><path class="cls-17" d="M447.09,221.57c-30.92,16.75-49.34,18.13-54.33,18.15C400.89,210.45,441.46,220.08,447.09,221.57Z"/><path class="cls-14" d="M372.1,218.34s12.43,10.28,25.73,4.25A37.17,37.17,0,0,0,416,204S379.06,193.21,372.1,218.34Z"/><path class="cls-17" d="M415.44,203.84c-24.66,13.36-39.35,14.46-43.33,14.48C378.6,195,411,202.65,415.44,203.84Z"/><path class="cls-14" d="M377.12,224.45s3.58,16.31-8.28,25.69A38.45,38.45,0,0,1,343.13,258S350.69,219,377.12,224.45Z"/><path class="cls-17" d="M343.25,257.46c24-16.36,31.95-29.37,33.85-33C352.53,219.35,344.28,252.77,343.25,257.46Z"/><path class="cls-15" d="M852.12,4S824.61,63.36,789,89.6s-72.13,50-120.84,54.39-58,3.65-58,3.65-2.32-.33,1.12,1.72,33.91-1.73,44.59-2.13,35.88.29,49.86-2.94,24-9.82,42.64-19.11,45.66-29,43.75-23S771,139.51,769.35,150.5s2.73,48-1.24,63.29S754.29,253,751.23,260.58s-1.43,7,2.78-3.47,16.82-41,16.35-41.32,6.1,58,22.86,87.83c0,0,5.83,9.62-.92-7.54s-18.93-54.29-19.15-87.16-.27-51.07,4.37-62.84,20.93-37.45,31.65-54.84,58-58.45,62.9-75.94"/><path class="cls-15" d="M741.9,132.06l-.69.34c-5.54,2.77-42.62,22-56.12,46.68-14.61,26.75-50.51,76.09-49.88,117.68l-1.92-.85a112.11,112.11,0,0,1,6.82-36.55,271.38,271.38,0,0,1,15.24-34.12s-53.87,63.45-71.27,80.16l15-18.46s37.78-41.07,54.95-64.18S669.9,185,683.44,169.35s40.15-37.25,40.15-37.25A33.85,33.85,0,0,1,741.9,132.06Z"/><path class="cls-15" d="M718.55,190.93S716.83,182,728,162.68s23.77-42,23.77-42l-8.94,3.21-6.64,5a201.76,201.76,0,0,1-11,30,156.41,156.41,0,0,0-10.42,31.4C714.5,191.05,716.7,203.39,718.55,190.93Z"/><path class="cls-15" d="M669.26,197.54s-9.09,16.54-69.66,20l-.13,1.62s41.49,1.77,70.62-17Z"/><path class="cls-16" d="M850.64,0c-1.76,1.45-20.42,55.53-61.08,83.68s-62.85,48-89.47,54.64-7.49,3.07,3,.8c0,0,17.61-2.12,29.89-9.3s53.16-34.33,62.87-37.11,5.64,2.59,22.12-16.88"/><path class="cls-14" d="M586.92,301.94s-15.52-1.31-22.75,10.79A35.93,35.93,0,0,0,560,337.47S595.23,325.71,586.92,301.94Z"/><path class="cls-17" d="M560.53,337.29c12.2-24.16,23.25-33.12,26.4-35.33C594.63,324.05,564.74,335.77,560.53,337.29Z"/><path class="cls-14" d="M593.51,297.34s-8.69,12.93-1.61,25.12a35.89,35.89,0,0,0,19.61,15.63S618.32,301.61,593.51,297.34Z"/><path class="cls-17" d="M611.6,337.57c-15.2-22.4-17.67-36.41-18.07-40.23C616.58,301.33,612.31,333.15,611.6,337.57Z"/><path class="cls-14" d="M592,295.79s-13,8.56-25.13,1.38a35.9,35.9,0,0,1-15.45-19.76S587.93,270.94,592,295.79Z"/><path class="cls-17" d="M551.91,277.33c22.26,15.4,36.24,18,40.06,18.44C588.2,272.68,556.34,276.66,551.91,277.33Z"/><path class="cls-14" d="M605,278.25s-10.37,6.83-20,1.1a28.63,28.63,0,0,1-12.32-15.76S601.8,258.43,605,278.25Z"/><path class="cls-17" d="M573.07,263.53c17.75,12.28,28.91,14.36,31.95,14.7C602,259.82,576.6,263,573.07,263.53Z"/><path class="cls-14" d="M634.22,272.68s-2.13,12.24-12.93,15.37a28.62,28.62,0,0,1-19.92-1.82S617.57,261.46,634.22,272.68Z"/><path class="cls-17" d="M601.6,285.89c21.12-4.53,30.27-11.23,32.6-13.21C618.73,262.26,603.64,283,601.6,285.89Z"/><path class="cls-14" d="M634.71,293.7s11,5.82,10.6,17.06a28.6,28.6,0,0,1-7.91,18.37S618.88,306.05,634.71,293.7Z"/><path class="cls-14" d="M638,280.32s12.38-1,18.13,8.64a28.65,28.65,0,0,1,3.27,19.73S631.35,299.26,638,280.32Z"/><path class="cls-17" d="M659,308.55c-9.7-19.29-18.5-26.45-21-28.22C631.83,297.94,655.65,307.33,659,308.55Z"/><path class="cls-14" d="M631.88,214.15s-12.42-.41-17-10.67a28.61,28.61,0,0,1-1-20S640.68,196.1,631.88,214.15Z"/><path class="cls-17" d="M614.27,183.69c7.42,20.28,15.33,28.4,17.62,30.44C640.05,197.35,617.46,185.29,614.27,183.69Z"/><path class="cls-14" d="M625.87,215.11s-10.38,7.59-8.32,19a29.6,29.6,0,0,0,10.82,17.65S643.92,225.42,625.87,215.11Z"/><path class="cls-17" d="M628.58,251.43c-5.48-21.66-3.46-33.23-2.69-36.31C642.65,224.71,630.38,248.2,628.58,251.43Z"/><path class="cls-14" d="M608.2,150.23s-11.92-10-24.81-4.31a35.9,35.9,0,0,0-17.65,17.82S601.28,174.43,608.2,150.23Z"/><path class="cls-17" d="M566.24,163.88c23.92-12.7,38.11-13.65,42-13.64C601.74,172.73,570.57,165.06,566.24,163.88Z"/><path class="cls-14" d="M616.24,150.26s-14.56,5.56-15.81,19.6a35.85,35.85,0,0,0,7,24.08S634,168.06,616.24,150.26Z"/><path class="cls-17" d="M607.81,193.57c.5-27.07,6.56-39.94,8.44-43.29C632.78,166.83,610.94,190.36,607.81,193.57Z"/><path class="cls-14" d="M593.32,109.69s33.59,15.79,22.56,38.42c0,0-15.57-.5-21.33-13.37a35.85,35.85,0,0,1-1.23-25.05"/><path class="cls-17" d="M593.79,109.92c9.3,25.43,19.23,35.62,22.1,38.17,10.23-21-18.09-36.16-22.1-38.17"/><path class="cls-14" d="M638.7,146.28s-12.41-.4-17-10.66a28.64,28.64,0,0,1-1-20S647.5,128.23,638.7,146.28Z"/><path class="cls-17" d="M621.09,115.82c7.42,20.28,15.33,28.41,17.62,30.45C646.87,129.49,624.29,117.43,621.09,115.82Z"/><path class="cls-14" d="M632.7,147.25s-10.38,7.59-8.33,19A29.66,29.66,0,0,0,635.19,184S650.75,157.55,632.7,147.25Z"/><path class="cls-17" d="M635.41,183.57c-5.49-21.67-3.46-33.23-2.7-36.31C649.48,156.85,637.2,180.33,635.41,183.57Z"/><path class="cls-14" d="M749.66,266.06s-11.07,4.78-11.58,15.68a27.8,27.8,0,0,0,6.21,18.4S764,279.24,749.66,266.06Z"/><path class="cls-17" d="M744.57,299.84c-.5-21,3.76-31.11,5.1-33.77C763,278.33,746.89,297.25,744.57,299.84Z"/><path class="cls-14" d="M752.48,260.51s-1.21,12,8.08,17.74a27.83,27.83,0,0,0,19.1,3.5S771,254.36,752.48,260.51Z"/><path class="cls-17" d="M779.53,281.36c-18.56-9.74-25.37-18.39-27-20.85C769.68,254.8,778.4,278.08,779.53,281.36Z"/><path class="cls-14" d="M750.86,260s-5.75,10.6-16.65,10.13a27.77,27.77,0,0,1-17.77-7.84S739,244.53,750.86,260Z"/><path class="cls-17" d="M716.76,262.06c20.83,2.38,31.33-1,34.09-2.06C739.84,245.62,719.55,260,716.76,262.06Z"/><path class="cls-14" d="M757.51,243.58s-4.58,8.45-13.28,8.07a22.12,22.12,0,0,1-14.17-6.25S748.07,231.23,757.51,243.58Z"/><path class="cls-17" d="M730.32,245.21c16.61,1.89,25-.77,27.18-1.64C748.72,232.1,732.54,243.55,730.32,245.21Z"/><path class="cls-14" d="M756.1,248.07s1.65,9.82,10.29,12.37a23,23,0,0,0,16-1.37S769.49,239.15,756.1,248.07Z"/><path class="cls-17" d="M782.18,258.79c-16.9-3.72-24.21-9.13-26.07-10.73C768.56,239.78,780.56,256.42,782.18,258.79Z"/><path class="cls-14" d="M716.29,190.29s-17.84,7.69-18.66,25.26,10,29.64,10,29.64S739.42,211.53,716.29,190.29Z"/><path class="cls-17" d="M708.08,244.7c-.8-33.76,6.07-50.12,8.23-54.4C737.79,210.06,711.82,240.54,708.08,244.7Z"/><path class="cls-14" d="M720.83,181.34s-1.94,19.33,13,28.58,30.78,5.63,30.78,5.63S750.63,171.43,720.83,181.34Z"/><path class="cls-17" d="M764.42,214.94c-29.91-15.69-40.88-29.64-43.57-33.61C748.55,172.14,762.59,209.65,764.42,214.94Z"/><path class="cls-14" d="M718.22,180.54s-9.26,17.08-26.83,16.32-28.62-12.63-28.62-12.63S699.15,155.59,718.22,180.54Z"/><path class="cls-17" d="M663.29,183.83c33.55,3.83,50.46-1.54,54.92-3.31C700.46,157.35,667.77,180.48,663.29,183.83Z"/><path class="cls-14" d="M728.94,154.05s-7.39,13.63-21.4,13A35.74,35.74,0,0,1,684.71,157S713.72,134.16,728.94,154.05Z"/><path class="cls-17" d="M685.12,156.68c26.77,3.06,40.26-1.23,43.81-2.64C714.77,135.56,688.7,154,685.12,156.68Z"/><path class="cls-14" d="M726.66,161.3s2.67,15.81,16.59,19.92A36.93,36.93,0,0,0,769,179S748.24,146.92,726.66,161.3Z"/><path class="cls-17" d="M768.69,178.56c-27.24-6-39-14.7-42-17.28C746.74,147.94,766.08,174.75,768.69,178.56Z"/><path class="cls-14" d="M821.89,349.39s3.16-46.19-28.2-47.9c0,0-8.89,17.27,1.63,31.36"/><path class="cls-17" d="M821.92,348.73c-22.07-25.56-27.16-42.56-28.2-47.24,29.14,1.61,28.44,41.66,28.2,47.24"/><path class="cls-14" d="M791.51,291.7s10.79,16.16,28.21,13.8,27.35-15.2,27.35-15.2S808.23,265.12,791.51,291.7Z"/><path class="cls-17" d="M846.52,290c-33.07,6.88-50.4,3.07-55,1.72C807.08,267,841.75,287,846.52,290Z"/><path class="cls-14" d="M748.5,330.81s9.91-45.22,40.49-38.08c0,0,3.7,19.08-10.35,29.65"/><path class="cls-17" d="M748.66,330.17c28.35-18.35,38-33.25,40.31-37.44-28.43-6.62-39,32-40.31,37.44"/><path class="cls-14" d="M780.45,265.47s2.95,15.22-8.26,23.65a35.71,35.71,0,0,1-24,6.72S756.06,259.77,780.45,265.47Z"/><path class="cls-17" d="M748.27,295.33c22.62-14.63,30.31-26.51,32.16-29.86C757.76,260.19,749.34,291,748.27,295.33Z"/><path class="cls-14" d="M783.29,272.51s12.1,10.53,25.47,4.85a36.94,36.94,0,0,0,18.47-18.05S790.82,247.7,783.29,272.51Z"/><path class="cls-17" d="M826.71,259.16c-24.83,12.67-39.46,13.41-43.42,13.33C790.31,249.44,822.28,257.87,826.71,259.16Z"/><path class="cls-14" d="M645.57,260.74s-4.11,12.18,4.18,20.36a29.6,29.6,0,0,0,19,8.17S666.25,258.74,645.57,260.74Z"/><path class="cls-17" d="M668.73,288.84c-17-14.53-22-25.15-23.15-28.1C664.81,258.9,668.33,285.16,668.73,288.84Z"/><path class="cls-14" d="M636.17,309.57s-16.54,6.77-17.59,22.92a41.17,41.17,0,0,0,8.71,27.43S657.09,329.49,636.17,309.57Z"/><path class="cls-17" d="M627.71,359.48c-.18-31.07,6.42-46,8.48-49.9C655.62,328.12,631.21,355.72,627.71,359.48Z"/><path class="cls-14" d="M640.5,301.41s-2.11,17.75,11.49,26.51a41.22,41.22,0,0,0,28.22,5.7S668.07,292.8,640.5,301.41Z"/><path class="cls-17" d="M680,333.05c-27.24-14.93-37.09-27.95-39.5-31.65C666.15,293.42,678.44,328.16,680,333.05Z"/><path class="cls-14" d="M638.11,300.63s-8.8,15.56-25,14.56A41.16,41.16,0,0,1,587,303.09S621,277.37,638.11,300.63Z"/><path class="cls-17" d="M587.53,302.74c30.8,4.09,46.44-.57,50.57-2.13C622.17,279,591.71,299.73,587.53,302.74Z"/><path class="cls-14" d="M648.42,276.45s-7,12.41-19.91,11.61a32.86,32.86,0,0,1-20.83-9.65S634.76,257.9,648.42,276.45Z"/><path class="cls-17" d="M608.07,278.13c24.57,3.26,37-.45,40.34-1.69C635.7,259.2,611.4,275.73,608.07,278.13Z"/><path class="cls-14" d="M646.2,283.07s2.18,14.6,14.93,18.61a34,34,0,0,0,23.7-1.6S666.29,270.21,646.2,283.07Z"/><path class="cls-17" d="M684.56,299.67c-24.94-6-35.62-14.19-38.34-16.61C664.9,271.13,682.23,296.12,684.56,299.67Z"/></g></g></g></svg>