<svg xmlns="http://www.w3.org/2000/svg" viewBox="0 0 736.93 563.89"><defs><style>.cls-1{fill:#6dd1c7;}.cls-2{fill:#92718c;stroke:#92718c;}.cls-2,.cls-4,.cls-5{stroke-miterlimit:10;stroke-width:8px;}.cls-3{fill:#fff;}.cls-4{fill:#d36446;stroke:#d36446;}.cls-5{fill:#27859d;stroke:#27859d;}.cls-6{fill:#815e3b;}.cls-7{fill:#5d3d1a;}.cls-8{fill:#bfa47e;}.cls-9{fill:#b79868;}.cls-10{fill:#21211f;}.cls-11{fill:#d6aa34;}.cls-12{opacity:0.97;}.cls-13{fill:#c49a6c;}.cls-14{fill:#a48255;}.cls-15{fill:#009b44;}.cls-16{fill:#017731;}</style></defs><title>Asset 15</title><g id="Layer_2" data-name="Layer 2"><g id="Layer_6" data-name="Layer 6"><rect class="cls-1" y="0.02" width="735.65" height="563"/><path class="cls-2" d="M209.39,241.64a232.86,232.86,0,0,1-1.78,32q-1.06,7.28-5.65,7.28-5.09,0-5.08-5.6,0-.26.61-5.65.7-6.36,1.17-12.87.6-9.66.61-20.25a275,275,0,0,0-3.05-39.07q-12.32,12.17-21.68,38-1.87,5.4-3.76,10.74c-1.22,2.64-2.92,4-5.09,4a4.93,4.93,0,0,1-4.63-3.11q-.56-1.11-2.95-9.1-6.26-21-23.56-39.69-5.64,18.32-5.64,50c0,3.06.12,6.82.38,11.3s.38,7.44.38,8.9q0,7.74-5.14,7.74-4,0-5.14-4.89-.77-3.56-.76-16.28,0-34.4,5-56.78c1.15-5.08,2.32-8.65,3.51-10.68s3-3.26,5-3.26,4.74,1.53,7.6,4.58a161.1,161.1,0,0,1,13.78,16.43,109.47,109.47,0,0,1,12.82,24.42q9.42-22.34,19.93-36,8.74-12.1,13.94-12.1a3.62,3.62,0,0,1,3.31,1.93,24.3,24.3,0,0,1,2,6.11Q209.39,206.07,209.39,241.64Z"/><path class="cls-3" d="M279.82,242.54a2.84,2.84,0,0,1-.73,2,2.25,2.25,0,0,1-1.74.82,22.34,22.34,0,0,1-3.81-1.3,17.7,17.7,0,0,0-6.49-1.3,17.14,17.14,0,0,0-2.1.13,45.45,45.45,0,0,0-1.23,10q0,5.84,2,9a6.14,6.14,0,0,0,5.47,3.13,8.16,8.16,0,0,0,2.82-.68,7.94,7.94,0,0,1,2.52-.68c1.77,0,2.66,1,2.66,3.13A3.74,3.74,0,0,1,277,270a12,12,0,0,1-6,1.27q-14.13,0-14.14-18.84a44.7,44.7,0,0,1,1-8.74c-.62.09-2,.35-4,.77a17.13,17.13,0,0,1-3,.4q-3.57,0-3.57-2.73,0-3.73,12.3-4.87,2.53-8,6.2-8a2.65,2.65,0,0,1,1.94.82,2.76,2.76,0,0,1,.8,2,6.55,6.55,0,0,1-.5,2.19c-.34.88-.67,1.76-1,2.65Q279.82,237.31,279.82,242.54Z"/><path class="cls-3" d="M243.6,245.14a5.81,5.81,0,0,1-2.4,5.13c-.71.49-3,1.13-6.77,1.9a64.88,64.88,0,0,1-12.9,1.57q-2.43,0-5.87-.33,0,12.57,9.57,12.57a8.09,8.09,0,0,0,4.77-1.5,33.74,33.74,0,0,0,3.83-3.57,2.93,2.93,0,0,1,2.1-1,3.25,3.25,0,0,1,2.42,1.05,3.56,3.56,0,0,1,1,2.58,3.43,3.43,0,0,1-1,2.33q-5.73,6.27-13.44,6.27-15.93,0-15.93-18.44a26.94,26.94,0,0,1,5.06-16.4q5.78-7.83,14.27-7.84a14.57,14.57,0,0,1,10.94,4.44A15.51,15.51,0,0,1,243.6,245.14Zm-6.63.4a12.12,12.12,0,0,0-2.42-7.34,6.9,6.9,0,0,0-5.55-2.7,10.86,10.86,0,0,0-7.64,3.1,19.09,19.09,0,0,0-5.07,8.87,44.59,44.59,0,0,0,5,.27A68.7,68.7,0,0,0,237,245.54Z"/><path class="cls-3" d="M315,242.54a2.88,2.88,0,0,1-.73,2,2.25,2.25,0,0,1-1.74.82,22.6,22.6,0,0,1-3.82-1.3,17.61,17.61,0,0,0-6.48-1.3,17.14,17.14,0,0,0-2.1.13,45.45,45.45,0,0,0-1.23,10q0,5.84,2,9a6.14,6.14,0,0,0,5.47,3.13,8.16,8.16,0,0,0,2.82-.68,8,8,0,0,1,2.51-.68c1.78,0,2.67,1,2.67,3.13a3.74,3.74,0,0,1-2.2,3.3,12,12,0,0,1-6,1.27q-14.13,0-14.14-18.84a44.7,44.7,0,0,1,1-8.74c-.62.09-2,.35-4,.77a17.13,17.13,0,0,1-3,.4q-3.57,0-3.57-2.73,0-3.73,12.3-4.87,2.54-8,6.2-8a2.65,2.65,0,0,1,1.94.82,2.76,2.76,0,0,1,.8,2,6.55,6.55,0,0,1-.5,2.19c-.34.88-.67,1.76-1,2.65Q315,237.31,315,242.54Z"/><path class="cls-3" d="M328.74,273.21a10.59,10.59,0,0,1-.3,3.1,2.38,2.38,0,0,1-2.49,1.47q-3.15,0-3.72-5.13a227.87,227.87,0,0,1-1-23.74q0-16.84.47-20.71.52-4.23,3.35-4.23,3.32,0,3.32,4,0,1-.37,7.95t-.36,12.82c0,3.43.17,7.85.53,13.29S328.74,271.21,328.74,273.21Z"/><path class="cls-3" d="M370.52,245.14a5.81,5.81,0,0,1-2.4,5.13c-.71.49-3,1.13-6.77,1.9a64.88,64.88,0,0,1-12.9,1.57q-2.43,0-5.87-.33,0,12.57,9.57,12.57a8.11,8.11,0,0,0,4.77-1.5,33.74,33.74,0,0,0,3.83-3.57,2.93,2.93,0,0,1,2.1-1,3.25,3.25,0,0,1,2.42,1.05,3.56,3.56,0,0,1,1,2.58,3.43,3.43,0,0,1-1,2.33q-5.73,6.27-13.44,6.27-15.93,0-15.94-18.44a26.94,26.94,0,0,1,5.07-16.4q5.78-7.83,14.27-7.84a14.57,14.57,0,0,1,10.94,4.44A15.51,15.51,0,0,1,370.52,245.14Zm-6.63.4a12.12,12.12,0,0,0-2.42-7.34,6.9,6.9,0,0,0-5.55-2.7,10.86,10.86,0,0,0-7.64,3.1,18.92,18.92,0,0,0-5.07,8.87,44.59,44.59,0,0,0,5,.27A68.7,68.7,0,0,0,363.89,245.54Z"/><path class="cls-3" d="M401.46,240.37a3,3,0,0,1-.77,2.13,2.36,2.36,0,0,1-1.83.87,4.8,4.8,0,0,1-2.37-1.17,5,5,0,0,0-2.83-1.16,6.06,6.06,0,0,0-5.14,2.78,12.82,12.82,0,0,0-2,7.52v4.37a35.29,35.29,0,0,1-1.54,11.6c-.95,2.69-2.19,4-3.7,4q-3,0-3-3a35.45,35.45,0,0,1,.93-4.41,30.5,30.5,0,0,0,.94-7.19q0-9.33-2.67-14.94c-.05-.11-.66-1.23-1.84-3.36a5.92,5.92,0,0,1-.9-2.6,2.68,2.68,0,0,1,1-2,3.24,3.24,0,0,1,2.23-.94q3.54,0,5.87,8.67,3.47-6.67,10.1-6.67a8.78,8.78,0,0,1,5.4,1.55A4.72,4.72,0,0,1,401.46,240.37Z"/><path class="cls-4" d="M205.19,357.79q0,5.07-4.86,5.07-3.42,0-7.5-6.37-3-4.71-9.79-18.74-19.78-.31-44.76-9.22-19.87,20.76-27.08,20.77a4.52,4.52,0,0,1-3.27-1.38,4.44,4.44,0,0,1-1.39-3.29c0-1.41,1.14-3,3.44-4.84l6.86-5.41A119,119,0,0,0,128,324.28q-8.91-3.52-8.91-7.25a5.2,5.2,0,0,1,1.4-3.65,4.39,4.39,0,0,1,3.36-1.53,12.46,12.46,0,0,1,4.71,1.45q5.49,2.47,6.53,2.89,20.87-27.39,23.46-40c.48-2.86,1-5.75,1.5-8.65.69-2.14,2.32-3.21,4.87-3.21a4.17,4.17,0,0,1,4.25,2.64,20.86,20.86,0,0,1,1,4.72,46.3,46.3,0,0,0,.88,5.43q4.92,20,19.06,50.34c1.59,0,3.13-.12,4.61-.26l2.07-.15c3.84,0,5.75,1.73,5.75,5.2s-2,5.36-6,5.36h-1.51q2,4.16,7,12.69Q205.2,355.72,205.19,357.79Zm-27-30.4a294.24,294.24,0,0,1-14.45-38.21,148.57,148.57,0,0,1-18.55,30.93A126.12,126.12,0,0,0,178.18,327.39Z"/><path class="cls-3" d="M237.22,345.21q0,3.46-7,8.9-5,3.81-13,3.81t-12.6-5.27q-4.7-5.37-4.7-14.74,0-12.11,5.4-18.86t14.84-6.75q7,0,11.47,3.14c2.82,1.95,4.23,4.3,4.23,7q0,3.38-3.13,3.37a2.36,2.36,0,0,1-2.14-1,35.22,35.22,0,0,0-1.83-3.67q-2.37-2.67-8.6-2.67a11.68,11.68,0,0,0-10.06,4.9q-3.54,4.9-3.55,14,0,14.4,11.47,14.4a15.47,15.47,0,0,0,11.34-4.7l2.07-3a3.35,3.35,0,0,1,2.73-1.8,3.09,3.09,0,0,1,2.17.91A2.78,2.78,0,0,1,237.22,345.21Z"/><path class="cls-3" d="M271.77,338.61a73.75,73.75,0,0,1-2.67,19.1q-1.34,5-4,5c-1.8,0-2.7-1-2.7-3.07a5.16,5.16,0,0,1,.07-1,14.7,14.7,0,0,1-7,1.83q-6.44,0-10.05-3.64t-3.62-10.16q0-6.64,3.9-10.52t10.37-3.89a13.08,13.08,0,0,1,9.5,3.77q-.63-13.17-9.76-13.17a9.35,9.35,0,0,0-4.36,1.22,9.22,9.22,0,0,1-3,1.21,2.77,2.77,0,0,1-2-.93,3,3,0,0,1-.9-2.13c0-1.34,1-2.57,2.9-3.71a14.34,14.34,0,0,1,7.41-1.83Q271.76,316.67,271.77,338.61ZM265,346.45q0-8.47-8-8.47-8.74,0-8.74,8.4t8.67,8.47a7.8,7.8,0,0,0,5.9-2.22A8.52,8.52,0,0,0,265,346.45Z"/><path class="cls-3" d="M315.94,308.37c0-.14-.13,1.53-.4,5q-.42,6-.73,12.84-.36,9.8-.37,20.87c0,1.51,0,3.06,0,4.65s0,2.43,0,2.52q0,5-3.15,5-3.45,0-3.45-5.61c0-.86,0-1.54.07-2a20.19,20.19,0,0,1-14.59,6.2q-6.93,0-11-4.48t-4-12.32q0-10.68,5.88-17.24t15.4-6.57a23.22,23.22,0,0,1,9.16,2,93.32,93.32,0,0,1,.63-11.06q.74-3.4,3.69-3.41C315,304.73,315.94,306,315.94,308.37Zm-7.46,17.34a16.32,16.32,0,0,0-8.76-2.74A13.23,13.23,0,0,0,289,327.66q-3.93,4.68-3.93,12.72c0,3.66.88,6.52,2.65,8.55A9.16,9.16,0,0,0,295,352q5.87,0,8.93-3.9c.57-.87,1.14-1.75,1.7-2.63a3.68,3.68,0,0,1,2.39-1.67Q308,334.41,308.48,325.71Z"/><path class="cls-3" d="M357.12,330.34a5.84,5.84,0,0,1-2.4,5.14c-.71.48-3,1.12-6.77,1.9a65.45,65.45,0,0,1-12.9,1.56q-2.43,0-5.87-.33,0,12.57,9.57,12.57a8.09,8.09,0,0,0,4.77-1.5,33.74,33.74,0,0,0,3.83-3.57,2.93,2.93,0,0,1,2.1-1,3.25,3.25,0,0,1,2.42,1.05,3.56,3.56,0,0,1,1,2.58,3.39,3.39,0,0,1-1,2.34q-5.73,6.27-13.44,6.26-15.93,0-15.93-18.43a27,27,0,0,1,5.06-16.41q5.77-7.83,14.27-7.83a14.6,14.6,0,0,1,10.94,4.43A15.51,15.51,0,0,1,357.12,330.34Zm-6.63.4a12.09,12.09,0,0,0-2.42-7.33,6.9,6.9,0,0,0-5.55-2.7,10.81,10.81,0,0,0-7.64,3.1,19,19,0,0,0-5.07,8.87,47.14,47.14,0,0,0,5,.26A68.7,68.7,0,0,0,350.49,330.74Z"/><path class="cls-3" d="M409.84,335.61q0,25.54-6.07,25.54-2.34,0-2.34-2.94s.38-2.56,1.14-7.61a103,103,0,0,0,1.13-15.12q0-12.57-5.93-12.57-5.2,0-6.84,6.33-1.23,4.88-1.23,19.14a39.5,39.5,0,0,0,.33,4.85q.33,2.65.33,3.12,0,3.3-3.13,3.3-3.76,0-3.77-12c0-3.38.13-6.9.39-10.58s.38-5.66.38-5.92q0-4.94-5.2-4.94a7.39,7.39,0,0,0-7.07,4.37q-2.13,4.23-2.13,13.4,0,5.91.33,11a40.41,40.41,0,0,0,.33,4.29,2.73,2.73,0,0,1-.91,2.1,3.41,3.41,0,0,1-2.35.83c-2,0-3.21-1.89-3.67-5.67a84,84,0,0,1-.24-8.47,153.91,153.91,0,0,1,2.34-27.3,21.8,21.8,0,0,1,1.53-5.67,3,3,0,0,1,2.9-1.7q3.14,0,3.14,3.33l-1.5,7.54a9.45,9.45,0,0,1,8.2-4,7.7,7.7,0,0,1,6.7,3.54q4.23-7,11.94-7Q409.84,316.74,409.84,335.61Z"/><path class="cls-3" d="M427,321q0,20.11-1.43,29.71a18.65,18.65,0,0,1-1.27,5.2,3,3,0,0,1-2.9,1.77,3.18,3.18,0,0,1-2.27-.89,2.79,2.79,0,0,1-.93-2.11c0,.11.18-.66.53-2.3a60.17,60.17,0,0,0,1-6.37,110.79,110.79,0,0,0,.53-11.34c0-1.82,0-3.74-.07-5.77s-.06-3.12-.06-3.3a17.69,17.69,0,0,1,.76-6.27,3,3,0,0,1,3-1.93Q427,317.37,427,321Zm1.43-12.7c0,3.16-1.54,4.73-4.63,4.73a4.4,4.4,0,0,1-4.43-4.43,4.78,4.78,0,0,1,4.83-4.8,4,4,0,0,1,3.07,1.23A4.59,4.59,0,0,1,428.47,308.27Z"/><path class="cls-3" d="M472.72,345.21q0,3.46-7,8.9-5,3.81-13,3.81T440,352.65q-4.69-5.37-4.7-14.74,0-12.11,5.4-18.86t14.84-6.75q7,0,11.47,3.14c2.82,1.95,4.24,4.3,4.24,7q0,3.38-3.14,3.37a2.33,2.33,0,0,1-2.13-1,33.67,33.67,0,0,0-1.84-3.67q-2.35-2.67-8.6-2.67a11.68,11.68,0,0,0-10.05,4.9q-3.55,4.9-3.55,14,0,14.4,11.47,14.4a15.45,15.45,0,0,0,11.33-4.7s.72-1,2.07-3a3.35,3.35,0,0,1,2.74-1.8,3,3,0,0,1,2.16.91A2.75,2.75,0,0,1,472.72,345.21Z"/><path class="cls-5" d="M196.91,395.2Q196.91,410,189,419t-20.53,9a27.72,27.72,0,0,1-12.87-2.71q-4.84-2.61-4.85-5.93v-.27a5.89,5.89,0,0,1,1.36-3.91,4.18,4.18,0,0,1,3.33-1.63c.61,0,2.37.62,5.26,1.85a20.23,20.23,0,0,0,7.88,1.86,15.18,15.18,0,0,0,12.27-6q4.86-6,4.85-15.18a18.65,18.65,0,0,0-7.36-15.35Q170.95,375,159,375a83.71,83.71,0,0,0-9.92.82q1,15.65,1,24.1,0,18.33-.76,32.72a159.87,159.87,0,0,1-4.15,29.94c-.76,3.06-2.4,4.58-4.91,4.58q-5.77,0-5.78-7.79,0,.87,3.22-24.93a196.58,196.58,0,0,0,1.09-23.12q0-19-.87-32.29a37.42,37.42,0,0,0-8.46,6.44c-2.32,2.25-4.16,3.38-5.5,3.38a5.37,5.37,0,0,1-3.9-1.63,5.22,5.22,0,0,1-1.67-3.82c0-1.6,1.53-3.88,4.58-6.82q13-12.48,34.63-12.49,18.12,0,28.75,8.43T196.91,395.2Z"/><path class="cls-3" d="M219,409.44a3.11,3.11,0,0,1-.76,2.13,2.38,2.38,0,0,1-1.84.87,4.74,4.74,0,0,1-2.36-1.17,4.93,4.93,0,0,0-2.84-1.17,6,6,0,0,0-5.13,2.79,12.8,12.8,0,0,0-2,7.52v4.36a35.66,35.66,0,0,1-1.53,11.61q-1.44,4-3.7,4-3,0-3-3a34.78,34.78,0,0,1,.94-4.42,30.38,30.38,0,0,0,.93-7.18q0-9.35-2.67-14.94c0-.11-.65-1.23-1.83-3.37a5.88,5.88,0,0,1-.9-2.6,2.69,2.69,0,0,1,1-2,3.28,3.28,0,0,1,2.23-.93q3.54,0,5.87,8.67,3.47-6.67,10.11-6.67a8.8,8.8,0,0,1,5.4,1.55A4.72,4.72,0,0,1,219,409.44Z"/><path class="cls-3" d="M262.1,418.44q0,9.8-5.74,15.62t-15.3,5.82q-7.94,0-12.44-5.42t-4.5-15q0-10.14,5.44-15.74t14.8-5.5a16.27,16.27,0,0,1,12.84,5.57Q262.09,409.3,262.1,418.44Zm-6.64.07q0-6.7-3.25-10.49a11.09,11.09,0,0,0-8.88-3.78q-12.57,0-12.57,15.1,0,7,2.73,10.72a9.12,9.12,0,0,0,7.84,3.75q6.6,0,10.37-4T255.46,418.51Z"/><path class="cls-3" d="M300.54,398.37c0,1.73-1,2.6-2.93,2.6-.27,0-.84-.05-1.7-.14-1.11-.11-2-.18-2.77-.23a15.14,15.14,0,0,1,4,10.54,12.61,12.61,0,0,1-4.18,9.75q-4.19,3.83-10.89,3.82c-1,0-2.6-.11-4.8-.34a16.67,16.67,0,0,0-4.5,5.07c4.34-.51,7.2-.76,8.6-.76q13.68,0,13.67,9.43a10.06,10.06,0,0,1-5.15,8.95q-5.15,3.26-14.38,3.25-5.81,0-9.27-2.23Q263,446,263,442.81a2.53,2.53,0,0,1,1-2,3.38,3.38,0,0,1,2.27-.83,2.66,2.66,0,0,1,1.73.77c.56.6,1.11,1.19,1.67,1.77,1.09,1.08,3.15,1.63,6.2,1.63,3.91,0,7-.51,9.13-1.53s3.17-2.34,3.17-4.07q0-3.76-8.73-3.77a51.93,51.93,0,0,0-5.45.38c-2.26.26-3.83.39-4.72.39-2.16,0-3.24-.76-3.24-2.27q0-3.17,6.24-10.77-5.14-3.63-5.14-10.47a14.72,14.72,0,0,1,4.54-10.84,15.15,15.15,0,0,1,11.1-4.5,17.2,17.2,0,0,1,3.2.34c.74-1.09,3.1-1.64,7.1-1.64Q300.54,395.43,300.54,398.37Zm-9.7,12.13a8.05,8.05,0,0,0-2.22-5.93,7.88,7.88,0,0,0-5.85-2.24,8.56,8.56,0,0,0-6.53,2.69,9.76,9.76,0,0,0-2.54,7q0,7,8.34,7a9,9,0,0,0,6.5-2.21A8.31,8.31,0,0,0,290.84,410.5Z"/><path class="cls-3" d="M329.48,409.44a3.11,3.11,0,0,1-.76,2.13,2.39,2.39,0,0,1-1.84.87,4.8,4.8,0,0,1-2.37-1.17,4.88,4.88,0,0,0-2.83-1.17,6,6,0,0,0-5.13,2.79,12.73,12.73,0,0,0-2,7.52v4.36a35.66,35.66,0,0,1-1.53,11.61c-1,2.69-2.19,4-3.71,4q-3,0-3-3a35.81,35.81,0,0,1,.93-4.42,29.91,29.91,0,0,0,.94-7.18q0-9.35-2.67-14.94c0-.11-.66-1.23-1.83-3.37a5.88,5.88,0,0,1-.9-2.6,2.69,2.69,0,0,1,1-2A3.28,3.28,0,0,1,306,402q3.54,0,5.87,8.67Q315.38,404,322,404a8.81,8.81,0,0,1,5.41,1.55A4.72,4.72,0,0,1,329.48,409.44Z"/><path class="cls-3" d="M363.46,422.47a73.88,73.88,0,0,1-2.67,19.11q-1.34,5-4,5c-1.8,0-2.7-1-2.7-3.07a5.23,5.23,0,0,1,.07-1,14.67,14.67,0,0,1-7,1.83q-6.43,0-10-3.63t-3.62-10.17q0-6.63,3.9-10.52t10.37-3.88a13.11,13.11,0,0,1,9.51,3.76q-.64-13.17-9.77-13.17a9.4,9.4,0,0,0-4.35,1.22,9.36,9.36,0,0,1-3,1.22,2.73,2.73,0,0,1-2-.94,2.94,2.94,0,0,1-.9-2.13c0-1.33,1-2.57,2.9-3.7a14.28,14.28,0,0,1,7.4-1.84Q363.47,400.53,363.46,422.47Zm-6.77,7.84q0-8.47-8-8.47-8.73,0-8.73,8.4t8.66,8.47a7.82,7.82,0,0,0,5.91-2.22A8.54,8.54,0,0,0,356.69,430.31Z"/><path class="cls-3" d="M419.31,419.47q0,25.54-6.07,25.54c-1.56,0-2.34-1-2.34-2.93t1.14-7.62a103,103,0,0,0,1.13-15.12q0-12.57-5.93-12.57-5.21,0-6.84,6.33-1.23,4.88-1.23,19.14a39.37,39.37,0,0,0,.33,4.85q.33,2.66.33,3.12,0,3.3-3.13,3.3-3.76,0-3.77-12,0-5.07.39-10.59t.38-5.92q0-4.94-5.2-4.93a7.38,7.38,0,0,0-7.07,4.36q-2.13,4.25-2.13,13.41c0,3.93.11,7.6.33,11a40.41,40.41,0,0,0,.33,4.29,2.73,2.73,0,0,1-.91,2.1,3.41,3.41,0,0,1-2.35.83c-2,0-3.21-1.89-3.67-5.67a83.77,83.77,0,0,1-.24-8.46,154,154,0,0,1,2.34-27.31,21.8,21.8,0,0,1,1.53-5.67,3.05,3.05,0,0,1,2.9-1.7q3.13,0,3.14,3.33l-1.5,7.54a9.44,9.44,0,0,1,8.2-4,7.69,7.69,0,0,1,6.7,3.53q4.23-7,11.94-7Q419.31,400.6,419.31,419.47Z"/><circle class="cls-6" cx="605.04" cy="413.42" r="65.49"/><path class="cls-7" d="M513.49,394.68c-8.74,17.74-2.53,49.19-2.53,49.19s3.88,5.45,7.82-4.37,9.32.85,12.46-8.52,13.65-11.92,17.18-19.09c8.74-17.74,3.83-27.5-5.82-32.25S522.23,377,513.49,394.68Z"/><path class="cls-7" d="M692.89,394.3c11.17,16.31,9.51,48.33,9.51,48.33s-3.07,5.94-8.36-3.22-9.11,2.18-13.55-6.65-15.21-9.86-19.73-16.45c-11.17-16.31-7.7-26.67,1.17-32.75S681.71,378,692.89,394.3Z"/><circle class="cls-8" cx="605.04" cy="413.42" r="43.75" transform="translate(-115.12 548.92) rotate(-45)"/><path class="cls-6" d="M600.68,401a4.3,4.3,0,0,0-.51.63,12.21,12.21,0,0,0-1,1.77,11.44,11.44,0,0,0-.79,5.51,15.13,15.13,0,0,0,1.55,5.11,18.57,18.57,0,0,0,1.07,1.67,7.08,7.08,0,0,0,.54.66,4.2,4.2,0,0,0,.47-.67,13.29,13.29,0,0,0,.89-1.81,12.13,12.13,0,0,0,.62-5.43,16.78,16.78,0,0,0-1.39-5,17,17,0,0,0-1-1.71A6.62,6.62,0,0,0,600.68,401Z"/><path class="cls-6" d="M588.18,388.46a4.88,4.88,0,0,0-.67.63A16.77,16.77,0,0,0,586,391a15.25,15.25,0,0,0-2.21,6.26,17.76,17.76,0,0,0,.5,6.46,21,21,0,0,0,.82,2.14,5.81,5.81,0,0,0,.45.82,6,6,0,0,0,.56-.75,20.52,20.52,0,0,0,1.14-2,20.14,20.14,0,0,0,1.66-6.13,24.91,24.91,0,0,0,0-6.19c-.08-.86-.36-1.66-.45-2.2A6.23,6.23,0,0,0,588.18,388.46Z"/><path class="cls-6" d="M571.8,399a5.86,5.86,0,0,0-.63.6,15.87,15.87,0,0,0-1.36,1.7,13.41,13.41,0,0,0-2,5.77c0,2.24.23,4.48,1.26,6.07a13.93,13.93,0,0,0,1.26,1.8,4.43,4.43,0,0,0,.59.62,5.88,5.88,0,0,0,.39-.81,18.21,18.21,0,0,0,.71-1.94,26.53,26.53,0,0,0,1-5.39,20,20,0,0,0-.28-5.6,15.05,15.05,0,0,0-.57-2A5.12,5.12,0,0,0,571.8,399Z"/><path class="cls-6" d="M586,412.69a4.15,4.15,0,0,0-.58.48,10.45,10.45,0,0,0-1.19,1.48,5.81,5.81,0,0,0-.87,2.31,8.17,8.17,0,0,0,1.86,7.41,10.71,10.71,0,0,0,1.42,1.26,3.72,3.72,0,0,0,.65.39,4.68,4.68,0,0,0,.29-.72,14.28,14.28,0,0,0,.5-1.69,14.75,14.75,0,0,0,.22-4.41,14.07,14.07,0,0,0-.41-2.26c-.21-.74-.52-1.43-.72-2s-.6-1.16-.76-1.56S586,412.69,586,412.69Z"/><path class="cls-6" d="M614.47,392.09a5.48,5.48,0,0,0,0,.79,16.7,16.7,0,0,0,.29,1.79,17.88,17.88,0,0,0,1.61,4.33,13.81,13.81,0,0,0,4.27,5.16,4.68,4.68,0,0,0,.67.45,3.42,3.42,0,0,0,.29-.71,11,11,0,0,0,.41-1.84,9.18,9.18,0,0,0-4.93-9.1,12.64,12.64,0,0,0-1.88-.72A4.28,4.28,0,0,0,614.47,392.09Z"/><path class="cls-6" d="M621.36,410.67a7.58,7.58,0,0,0-.18.83c0,.48-.22,1.13-.38,1.88a39.2,39.2,0,0,0-.58,5.08,24.9,24.9,0,0,0,.4,5.24c.19.78.35,1.46.47,1.93a5.21,5.21,0,0,0,.27.79,5.07,5.07,0,0,0,.69-.52,9.59,9.59,0,0,0,1.46-1.6,10.74,10.74,0,0,0,1.87-5.71,9.81,9.81,0,0,0-1.71-5.89,7,7,0,0,0-1.57-1.57A4.47,4.47,0,0,0,621.36,410.67Z"/><path class="cls-6" d="M636.88,399s0,.28,0,.75a12.18,12.18,0,0,1-.12,1.62,16.13,16.13,0,0,0,.26,4.34,13.88,13.88,0,0,0,1.75,4.21c.36.59.82,1.07,1.06,1.43a5,5,0,0,0,.53.57,4,4,0,0,0,.48-.59,8.32,8.32,0,0,0,.89-1.62,8.79,8.79,0,0,0,.34-5,8.46,8.46,0,0,0-2.64-4.52,5.18,5.18,0,0,0-1.76-1A2.77,2.77,0,0,0,636.88,399Z"/><path class="cls-6" d="M608.43,442.76l.08-.75a12.34,12.34,0,0,1,.26-1.6,15.93,15.93,0,0,0,.09-4.35,14.19,14.19,0,0,0-1.41-4.34c-.31-.61-.73-1.13-1-1.51a4.7,4.7,0,0,0-.47-.61,3.79,3.79,0,0,0-.53.55,8.14,8.14,0,0,0-1,1.55,8.81,8.81,0,0,0-.74,4.94,8.43,8.43,0,0,0,2.27,4.72,5.39,5.39,0,0,0,1.67,1.16A3.2,3.2,0,0,0,608.43,442.76Z"/><path class="cls-6" d="M589.7,444.23s0-.28-.07-.75a11.8,11.8,0,0,1-.08-1.62,15.91,15.91,0,0,0-.82-4.27,14,14,0,0,0-2.28-3.95c-.43-.53-1-.95-1.24-1.28a5.21,5.21,0,0,0-.59-.5,4.3,4.3,0,0,0-.4.65,8.41,8.41,0,0,0-.68,1.72,8.82,8.82,0,0,0,.3,5,8.56,8.56,0,0,0,3.2,4.15,5.3,5.3,0,0,0,1.88.78A2.68,2.68,0,0,0,589.7,444.23Z"/><path class="cls-6" d="M625.2,444.23s0-.28.07-.75a11.8,11.8,0,0,0,.08-1.62,15.91,15.91,0,0,1,.82-4.27,14,14,0,0,1,2.28-3.95c.43-.53.94-.95,1.24-1.28a5.21,5.21,0,0,1,.59-.5,4.3,4.3,0,0,1,.4.65,8.41,8.41,0,0,1,.68,1.72,8.82,8.82,0,0,1-.3,5,8.56,8.56,0,0,1-3.2,4.15,5.3,5.3,0,0,1-1.88.78A2.68,2.68,0,0,1,625.2,444.23Z"/><path class="cls-6" d="M589.15,339.54a44.48,44.48,0,1,0,44.48-44.48A44.48,44.48,0,0,0,589.15,339.54Z"/><path class="cls-6" d="M532,339.54a44.48,44.48,0,1,0,44.48-44.48A44.48,44.48,0,0,0,532,339.54Z"/><path class="cls-9" d="M575.31,305.31A34.19,34.19,0,0,1,605,322.63a34.23,34.23,0,1,1,0,33.81,34.21,34.21,0,1,1-29.73-51.13Z"/><path class="cls-3" d="M612.52,338.71a25.37,25.37,0,1,0,25.37-25.38A25.37,25.37,0,0,0,612.52,338.71Z"/><path class="cls-7" d="M618.7,341.76a15.95,15.95,0,1,0,15.94-15.94A15.95,15.95,0,0,0,618.7,341.76Z"/><path class="cls-10" d="M622,341.76a12.69,12.69,0,1,0,12.69-12.69A12.7,12.7,0,0,0,622,341.76Z"/><path class="cls-3" d="M625,343.08a3.23,3.23,0,1,0,3.22-3.22A3.22,3.22,0,0,0,625,343.08Z"/><path class="cls-3" d="M546.82,338.71a25.37,25.37,0,1,0,25.38-25.38A25.38,25.38,0,0,0,546.82,338.71Z"/><path class="cls-11" d="M597.69,356.27a2.88,2.88,0,0,1,2.39-1.28s2.3-5.88,5-5.88S610,355,610,355a2.86,2.86,0,0,1,2.64,4l-5,11.9a2.86,2.86,0,0,1-5.28,0l-5-11.9A2.89,2.89,0,0,1,597.69,356.27Z"/><path class="cls-7" d="M553,341.76a15.95,15.95,0,1,0,15.94-15.94A15.95,15.95,0,0,0,553,341.76Z"/><path class="cls-10" d="M556.25,341.76a12.69,12.69,0,1,0,12.69-12.69A12.7,12.7,0,0,0,556.25,341.76Z"/><path class="cls-3" d="M559.68,341.76a3.23,3.23,0,1,0,3.23-3.22A3.23,3.23,0,0,0,559.68,341.76Z"/><path class="cls-6" d="M625,297a55.13,55.13,0,0,1,13.23-6.44c8.25-2.81,14.22.7,18.84-9.48,1.18,10.71-6.08,21.3-6.08,21.3Z"/><path class="cls-6" d="M585.05,297a55.13,55.13,0,0,0-13.23-6.44c-8.25-2.81-14.23.7-18.85-9.48-1.17,10.71,6.09,21.3,6.09,21.3Z"/><path class="cls-6" d="M613,308.12s.81-16.35,7.54-23.67c-6.86.62-10.68,4.82-12.38,14.81.79-13.06-4.81-14.72-4.81-14.72s.83,13.37-2.37,14.2c-5-8.9-9.26-8.51-12.88-8.33,7.76,5.44,10.45,21,10.45,21Z"/><path class="cls-11" d="M617.31,467.11a4.94,4.94,0,0,1,4.44,2.8,4.9,4.9,0,0,1,8.86,0,4.93,4.93,0,0,1,9.38,2.14v10.18a4.93,4.93,0,0,1-9.38,2.15,4.9,4.9,0,0,1-8.86,0,4.93,4.93,0,0,1-9.38-2.15V472.05A4.94,4.94,0,0,1,617.31,467.11Z"/><path class="cls-11" d="M575,467.11a4.94,4.94,0,0,1,4.44,2.8,4.91,4.91,0,0,1,8.87,0,4.93,4.93,0,0,1,9.38,2.14v10.18a4.93,4.93,0,0,1-9.38,2.15,4.91,4.91,0,0,1-8.87,0,4.93,4.93,0,0,1-9.38-2.15V472.05A4.94,4.94,0,0,1,575,467.11Z"/><g class="cls-12"><path class="cls-13" d="M719.85,445.19l-99.43,33.12-63.71,2.95-64.12,49.4-25.44-2.94-300.1-1L23.32,484,0,480.71v59.68l9.58-1.46L129.46,563l115,.73,215-6.13,67.88,5.4h123l12.26-8,45.83-16.87-41.24-7.33L616.75,555,518.6,536.24l45.72-40.64,66.18-2.72,84.77-32h21.09c0-2.86,0-6.25,0-9Z"/><path class="cls-14" d="M244.81,563.89,460,557.75,525.52,563l125.74.06,12.06-7.86,45.87-16.88-6.88-1.22c-3.69.36-7,1-9.17,1.37-20.46,3.74-38.57,13.53-58.3,19.58-28.26,8.66-56.17-.12-84.53-3.35-16.89-1.93-33.57-5.41-50.39-7.88A229.89,229.89,0,0,0,451.16,545c-18.3,1.18-36.54,3.08-54.84,4.24s-36.56.49-54.92.34c-37.45-.29-74.86,2.58-112.29,3.48-38.69.94-76.47-1.15-114.27-10.13-14.26-3.39-28.37-7.45-42.41-11.68-12.9-3.87-25.5-8-38.85-9.89A184,184,0,0,0,0,520c0,15.29.55,20.49.55,20.49l9.19-1.4,122.2,24.53Z"/><path class="cls-14" d="M516.67,538.37v0Z"/><path class="cls-14" d="M516.68,538.49v0Z"/><path class="cls-14" d="M516.69,538.7Z"/><path class="cls-14" d="M736.36,457.28c-4.79.35-7.54.72-12.26,1.3a177.55,177.55,0,0,0-40.26,10c-9.59,3.55-19,7.56-28.58,11.1-11.55,4.26-23.59,6.25-35.73,8C603.37,490,572,483.17,559.09,494c-10.83,9.07-43.33,30-42.42,44.36.51,0,47.35-40.63,47.35-40.63l69-3.12,87.64-32h15.74A49.32,49.32,0,0,0,736.36,457.28Z"/><path class="cls-15" d="M716.72,455.27s-19.77-24-8.1-49.57c7.33-16.08,19.62-25.71,27.74-30.65.6-.37,0,50.2,0,68.61a36.06,36.06,0,0,1-8.48,6.92c-1,.57-2,1.11-3,1.64A45.94,45.94,0,0,1,716.72,455.27Z"/><path class="cls-16" d="M736.93,395.1S717,448.9,716.65,455.27a40.26,40.26,0,0,0,20.1-10.48C736.62,416.52,736.93,395.1,736.93,395.1Z"/></g><path class="cls-13" d="M75.92,30.62s0,.12.12.25C76,30.69,75.94,30.6,75.92,30.62Z"/><path class="cls-13" d="M114.21,67.27C107.92,60.5,87.83,39.12,77.49,24.6,73.6,19.14,66,0,66,0h-4c2.47,6.4,5.14,13.53,8.11,21.47,13,34.84,15.12,79,14.9,99.88s2.07,8.34,2.07,8.34C92.62,92.92,77.56,32.16,76,27.87c-.08-.13-.13-.22-.12-.25s.06.07.12.25c1.79,2.72,25.51,27.86,33.83,36.85C118.56,74.13,120.49,74,114.21,67.27Z"/><path class="cls-13" d="M285.69,36.77S245.88,16.92,216.84.19h-4.61C235.5,12.85,289.52,42,309,50.24Z"/><path class="cls-13" d="M208,.19h-4.14c20.26,18,39.41,38.92,47.64,61.53l1.69-1.67a127.05,127.05,0,0,0-21.95-35.89A318.6,318.6,0,0,0,208,.19Z"/><path class="cls-15" d="M304.62,47.73S320.5,40.08,333,50a40.66,40.66,0,0,1,14.36,24.49S305.42,76.2,304.62,47.73Z"/><path class="cls-16" d="M346.78,74.46c-22.65-20.63-37.94-25.65-42.16-26.71C305.38,74.22,341.71,74.54,346.78,74.46Z"/><path class="cls-15" d="M295.79,45.52s14.4,10.16,11.84,25.91A40.6,40.6,0,0,1,293.2,95.87S271.29,60,295.79,45.52Z"/><path class="cls-16" d="M292.9,95.36c7-29.82,4-45.63,2.88-49.83C273,59,290.36,91,292.9,95.36Z"/><path class="cls-15" d="M296.79,43.26s17.21,3.81,27.14-8.68a40.62,40.62,0,0,0,8.36-27.12S291.05,15.35,296.79,43.26Z"/><path class="cls-16" d="M331.71,7.58c-17.32,25.27-31.06,33.66-34.92,35.66C291.47,17.3,326.76,8.66,331.71,7.58Z"/><path class="cls-15" d="M275.92,30s13.73,3,21.64-6.93a32.39,32.39,0,0,0,6.68-21.63S271.34,7.73,275.92,30Z"/><path class="cls-16" d="M303.77,1.52C290,21.67,279,28.37,275.92,30,271.68,9.28,299.82,2.38,303.77,1.52Z"/><path class="cls-15" d="M242.81,35.87S250,48,262.68,46.9A32.42,32.42,0,0,0,283,37S255.89,17.29,242.81,35.87Z"/><path class="cls-16" d="M282.62,36.67c-24.15,3.74-36.53.34-39.8-.81C255,18.6,279.28,34.38,282.62,36.67Z"/><path class="cls-15" d="M250.76,58.29s-9.26,10.58-4.32,22.31a32.4,32.4,0,0,0,15.77,16.24S272.48,65,250.76,58.29Z"/><path class="cls-15" d="M241.88,45.47s-13.51,3.91-15.68,16.45a32.38,32.38,0,0,0,4.5,22.18S256.56,62.81,241.88,45.47Z"/><path class="cls-16" d="M231.06,83.79c2.48-24.31,8.89-35.43,10.83-38.3C255.52,61.61,234.12,81.14,231.06,83.79Z"/><path class="cls-15" d="M230.13.19a61.72,61.72,0,0,0,10.44,11.25A33.1,33.1,0,0,0,244.85.19Z"/><path class="cls-16" d="M230.14.19A62.22,62.22,0,0,0,240.2,11.13q-.7-6-1.66-10.94Z"/><path class="cls-15" d="M118.08,75.43s13.63.58,18.57,11.9a31.47,31.47,0,0,1,.85,22S108.22,95.16,118.08,75.43Z"/><path class="cls-16" d="M137.09,109.08c-7.92-22.35-16.53-31.37-19-33.63C108.92,93.79,133.59,107.29,137.09,109.08Z"/><path class="cls-15" d="M112.86,70.69s6.11,12.2-1.39,22a31.42,31.42,0,0,1-18.78,11.4S90.83,71.65,112.86,70.69Z"/><path class="cls-16" d="M92.67,103.65c15.7-17.78,19.4-29.68,20.18-33C92.37,71.6,92.54,99.73,92.67,103.65Z"/><path class="cls-15" d="M114.37,69.52s10.35,8.89,21.69,4a31.48,31.48,0,0,0,15.63-15.45S120.65,48.37,114.37,69.52Z"/><path class="cls-16" d="M151.25,57.93c-21.07,10.91-33.51,11.62-36.87,11.57C120.22,49.85,147.47,56.85,151.25,57.93Z"/><path class="cls-15" d="M100.71,54.82S109,61.91,118,58a25,25,0,0,0,12.46-12.32S105.72,38,100.71,54.82Z"/><path class="cls-16" d="M130.12,45.58c-16.8,8.7-26.72,9.26-29.41,9.23C105.38,39.14,127.11,44.72,130.12,45.58Z"/><path class="cls-15" d="M104,59s2.21,11-5.9,17.23a25.94,25.94,0,0,1-17.44,5S86.26,55,104,59Z"/><path class="cls-16" d="M80.76,80.85C97.14,70.11,102.68,61.44,104,59,87.5,55.26,81.52,77.7,80.76,80.85Z"/><path class="cls-15" d="M152.25,0c-11.2-.08-21.1.13-32.21.16,4.27,21.85,34.05,36.23,34.05,36.23S160.67,19.28,152.72,1Z"/><path class="cls-16" d="M119.86,0C123.75,20,149,33.9,153.39,36.15A193.52,193.52,0,0,0,136.73,0Z"/><path class="cls-15" d="M84.74,0a91.88,91.88,0,0,0-2.86,26s18.18-2.56,30.27-18.37A28.68,28.68,0,0,0,116.34,0Z"/><path class="cls-16" d="M101.47,0H84.85c-3,5.53-3.09,22.74-3,25.67"/><path class="cls-15" d="M75.32,192.66s-22-47.56,10.49-62c0,0,16.37,14.67,10.93,33.82"/><path class="cls-16" d="M75,192c13-35.94,11.55-56,10.77-61.33C55.63,144.12,72.51,186.17,75,192"/><path class="cls-15" d="M84.17,119.41s-4.88,21.44-24.26,26-35-5-35-5S55.77,98.05,84.17,119.41Z"/><path class="cls-16" d="M25.31,139.76C63,133.7,79.83,122.68,84.15,119.4,57.74,99.56,29.17,134.75,25.31,139.76Z"/><path class="cls-15" d="M145.42,143.42S116.7,99.6,87.25,119.49c0,0,3.78,21.66,22.91,27.17"/><path class="cls-16" d="M145,142.81c-37.38-8-53.59-19.83-57.73-23.33C114.66,101,141.4,137.61,145,142.81"/><path class="cls-15" d="M85.29,87.22s3,17.28,18.27,21.67a40.39,40.39,0,0,0,28.12-2.58S108.78,71.36,85.29,87.22Z"/><path class="cls-16" d="M131.35,105.82c-29.81-6.36-42.74-15.82-46-18.61C107.15,72.48,128.48,101.67,131.35,105.82Z"/><path class="cls-15" d="M85.12,95.81s-8.55,16-25,15.4A41.84,41.84,0,0,1,33.34,99.58S67.16,72.62,85.12,95.81Z"/><path class="cls-16" d="M33.82,99.21c31.37,3.38,47.14-1.74,51.29-3.42C68.4,74.25,38,96.05,33.82,99.21Z"/><path class="cls-15" d="M226,27.81S235.25,39,229.78,51A33.55,33.55,0,0,1,213,67.35S203.32,34.05,226,27.81Z"/><path class="cls-16" d="M212.84,66.87C224.93,44.66,226,31.41,226,27.82,204.91,33.63,211.78,62.82,212.84,66.87Z"/><path class="cls-15" d="M255.62,75.65s20.22.49,27.84,17.14,1.86,32.52,1.86,32.52S241.54,105.16,255.62,75.65Z"/><path class="cls-16" d="M284.7,125c-12.35-32.93-25.34-46-29.09-49.34C242.54,103.11,279.48,122.45,284.7,125Z"/><path class="cls-15" d="M247.76,68.77s9.39,17.92-1.47,32.67-27.53,17.41-27.53,17.41S215.13,70.79,247.76,68.77Z"/><path class="cls-16" d="M218.72,118.17c22.79-26.78,28-44.52,29-49.39C217.41,70.67,218.43,112.35,218.72,118.17Z"/><path class="cls-15" d="M250,67s15.58,12.9,32.26,5.33S305,49,305,49,258.69,35.48,250,67Z"/><path class="cls-16" d="M304.3,48.81C273.38,65.56,255,66.94,250,67,258.1,37.69,298.67,47.32,304.3,48.81Z"/><path class="cls-15" d="M229.32,45.58S241.75,55.87,255,49.83a37.18,37.18,0,0,0,18.14-18.61S236.28,20.45,229.32,45.58Z"/><path class="cls-16" d="M272.65,31.08C248,44.44,233.3,45.54,229.32,45.56,235.81,22.21,268.16,29.89,272.65,31.08Z"/><path class="cls-15" d="M234.33,51.69s3.58,16.31-8.28,25.69a38.45,38.45,0,0,1-25.71,7.87S207.9,46.19,234.33,51.69Z"/><path class="cls-16" d="M200.46,84.7c24-16.36,31.95-29.36,33.85-33C209.75,46.59,201.49,80,200.46,84.7Z"/><path class="cls-13" d="M624.43,43.22s0,.07,0,.24C624.44,43.33,624.45,43.23,624.43,43.22Z"/><path class="cls-13" d="M645.69,124.34c-6.75-17.15-18.94-54.29-19.15-87.16-.1-15.19-.17-27.24.25-37h-4.08C623.24,15,624,32.65,621.5,42.05c-4,15.24-13.82,39.22-16.88,46.79s-1.43,7,2.78-3.47c4-10,15.71-38.27,16.32-41.08,0-.17,0-.26,0-.24s0,.11,0,.24c.1,4,6.8,58.93,22.89,87.59C646.61,131.88,652.44,141.5,645.69,124.34Z"/><path class="cls-13" d="M508.13,50C491,73.13,453.18,114.2,453.18,114.2l-15,18.46C455.56,116,509.43,52.5,509.43,52.5a269.67,269.67,0,0,0-15.24,34.12,112.3,112.3,0,0,0-6.83,36.55l1.92.85c-.63-41.59,35.27-90.93,49.88-117.68A58.07,58.07,0,0,1,543.07.2h-8.42C524.08,14.59,524,28.67,508.13,50Z"/><path class="cls-13" d="M576.6.2h-3a157.28,157.28,0,0,0-4.84,17.37c-.21.74,2,13.08,3.84.62,0,0-1.1-5.73,4.17-17.91Z"/><path class="cls-13" d="M523.34,25s-9.09,16.54-69.67,20l-.13,1.62s41.49,1.76,70.63-17Z"/><path class="cls-15" d="M441,129.37s-15.82-14-23.05-1.92a35.9,35.9,0,0,0-4.14,24.73S449.3,153.13,441,129.37Z"/><path class="cls-16" d="M414.29,152c12.21-24.17,23.56-20.41,26.71-22.62C448.71,151.48,418.51,150.48,414.29,152Z"/><path class="cls-15" d="M447.59,124.77s-8.69,12.92-1.62,25.12a35.93,35.93,0,0,0,19.62,15.63S472.39,129,447.59,124.77Z"/><path class="cls-16" d="M465.68,165c-15.2-22.4-17.67-36.41-18.08-40.23C470.66,128.76,466.39,160.58,465.68,165Z"/><path class="cls-15" d="M446.05,123.22s-13,8.56-25.14,1.37-15.75-32.47-15.75-32.47S442,98.37,446.05,123.22Z"/><path class="cls-16" d="M405.67,92c22.27,15.41,36.56,30.72,40.38,31.16C442.27,100.11,410.11,91.37,405.67,92Z"/><path class="cls-15" d="M459.1,105.68s-10.38,6.83-20.05,1.1A28.63,28.63,0,0,1,426.73,91S455.87,85.86,459.1,105.68Z"/><path class="cls-16" d="M427.14,91c17.76,12.28,28.91,14.36,32,14.7C456.09,87.25,430.68,90.42,427.14,91Z"/><path class="cls-15" d="M488.29,100.11s-2.12,12.24-12.92,15.37a28.61,28.61,0,0,1-19.92-1.82S471.64,88.89,488.29,100.11Z"/><path class="cls-16" d="M455.68,113.32c21.11-4.53,30.26-11.23,32.6-13.21C472.8,89.69,457.71,110.37,455.68,113.32Z"/><path class="cls-15" d="M488.79,121.13s11,5.82,10.59,17.06a28.62,28.62,0,0,1-7.9,18.37S473,133.47,488.79,121.13Z"/><path class="cls-15" d="M492.09,107.75s12.38-1,18.13,8.64a28.62,28.62,0,0,1,3.26,19.73S485.43,126.69,492.09,107.75Z"/><path class="cls-16" d="M513.09,136c-9.7-19.29-18.5-26.45-21-28.22C485.91,125.37,509.73,134.75,513.09,136Z"/><path class="cls-15" d="M486,41.58s-12.42-.41-17-10.67a28.64,28.64,0,0,1-1-20S494.75,23.53,486,41.58Z"/><path class="cls-16" d="M468.34,11.11c7.42,20.28,15.33,28.41,17.62,30.45C494.12,24.78,471.54,12.72,468.34,11.11Z"/><path class="cls-15" d="M480,42.54s-10.38,7.59-8.32,19.05a29.61,29.61,0,0,0,10.81,17.65S498,52.84,480,42.54Z"/><path class="cls-16" d="M482.66,78.86c-5.49-21.67-3.46-33.23-2.7-36.31C496.73,52.14,484.46,75.63,482.66,78.86Z"/><path class="cls-15" d="M454.38.2a34.41,34.41,0,0,0,7.13,21.17S471.69,12.19,475.09.19C468,.16,461.42.19,454.38.2Z"/><path class="cls-16" d="M463.6.2A136,136,0,0,0,461.88,21c1.88-1.93,10.19-10.07,13.21-20.73C471.21.13,467.45.09,463.6.2Z"/><path class="cls-15" d="M480,.2a30.72,30.72,0,0,0,9.25,12.17,59.74,59.74,0,0,0,5-12.17Z"/><path class="cls-16" d="M494.22.2H487c.57,3.45,1.47,7.61,2.53,11.8A59.53,59.53,0,0,0,494.22.2Z"/><path class="cls-15" d="M603.74,91.49s-11.08,4.77-11.58,15.68a27.8,27.8,0,0,0,6.21,18.4S618.09,104.67,603.74,91.49Z"/><path class="cls-16" d="M598.64,125.27c-.5-21,3.77-31.11,5.11-33.77C617.08,103.76,601,122.68,598.64,125.27Z"/><path class="cls-15" d="M606.55,87.94s-1.2,12,8.08,17.73a27.77,27.77,0,0,0,19.1,3.5S625.05,81.79,606.55,87.94Z"/><path class="cls-16" d="M633.6,108.79c-18.56-9.74-25.36-18.39-27-20.86C623.76,82.23,632.47,105.51,633.6,108.79Z"/><path class="cls-15" d="M604.94,87.44S599.19,98,588.28,97.57a27.76,27.76,0,0,1-17.76-7.84S593.1,72,604.94,87.44Z"/><path class="cls-16" d="M570.84,89.49c20.83,2.37,31.32-1,34.09-2.06C593.91,73.05,573.62,87.41,570.84,89.49Z"/><path class="cls-15" d="M611.59,71S607,79.46,598.3,79.08a22.11,22.11,0,0,1-14.16-6.25S602.14,58.66,611.59,71Z"/><path class="cls-16" d="M584.39,72.64c16.61,1.89,25-.77,27.19-1.64C602.79,59.53,586.61,71,584.39,72.64Z"/><path class="cls-15" d="M610.17,75.5s1.66,9.82,10.3,12.37a23,23,0,0,0,16-1.37S623.56,66.58,610.17,75.5Z"/><path class="cls-16" d="M636.26,86.22c-16.91-3.72-24.21-9.13-26.08-10.73C622.63,67.21,634.64,83.85,636.26,86.22Z"/><path class="cls-15" d="M570.37,17.71S552.53,25.41,551.71,43s10,29.65,10,29.65S593.5,39,570.37,17.71Z"/><path class="cls-16" d="M562.16,72.13c-.81-33.76,6.06-50.12,8.23-54.4C591.87,37.49,565.9,68,562.16,72.13Z"/><path class="cls-15" d="M574.9,8.77s-1.94,19.33,13,28.57S618.7,43,618.7,43,604.7-1.15,574.9,8.77Z"/><path class="cls-16" d="M618.49,42.36c-29.91-15.68-40.87-29.63-43.56-33.6C602.63-.43,616.67,37.08,618.49,42.36Z"/><path class="cls-15" d="M563.33.37H537.66a81.1,81.1,0,0,0-20.82,11.28s11.06,11.88,28.63,12.64S572.3,8,572.3,8A25.87,25.87,0,0,0,563.33.37Z"/><path class="cls-16" d="M563.2.2H537.68a80.13,80.13,0,0,0-20.32,11.06c33.56,3.83,50.47-1.54,54.93-3.31A26.84,26.84,0,0,0,563.2.2Z"/><path class="cls-15" d="M618.25.19H585.72a19.65,19.65,0,0,0,11.61,8.45,37,37,0,0,0,25.73-2.21A57.67,57.67,0,0,0,618.25.19Z"/><path class="cls-16" d="M618.25.19c-6.19,0-11.8,0-17.66,0C606.43,2.43,613.83,4,622.76,6A62.7,62.7,0,0,0,618.25.19Z"/><path class="cls-15" d="M675.66,164.1s3.47-33.47-27.89-35.18c0,0-8.9,17.27,1.63,31.36"/><path class="cls-16" d="M675.69,163.45c-22.07-25.57-26.85-29.85-27.9-34.53,29.14,1.61,28.14,28.94,27.9,34.53"/><path class="cls-15" d="M645.59,119.13s10.78,16.16,28.21,13.8,27-27.91,27-27.91S662.31,92.54,645.59,119.13Z"/><path class="cls-16" d="M700.29,104.67c-33.07,6.89-50.09,15.79-54.69,14.44C661.16,94.41,695.52,101.75,700.29,104.67Z"/><path class="cls-15" d="M602.58,158.24s9.91-45.23,40.49-38.08c0,0,3.7,19.08-10.36,29.65"/><path class="cls-16" d="M602.73,157.6c28.35-18.35,38-33.25,40.32-37.44-28.43-6.62-39,32-40.32,37.44"/><path class="cls-15" d="M634.52,92.9s3,15.22-8.26,23.65a35.71,35.71,0,0,1-24,6.72S610.13,87.2,634.52,92.9Z"/><path class="cls-16" d="M602.35,122.76C625,108.12,632.66,96.24,634.5,92.9,611.83,87.62,603.42,118.43,602.35,122.76Z"/><path class="cls-15" d="M637.36,99.94s12.11,10.53,25.47,4.85a36.93,36.93,0,0,0,18.48-18.05S644.89,75.13,637.36,99.94Z"/><path class="cls-16" d="M680.79,86.59C656,99.26,641.32,100,637.37,99.92,644.38,76.87,676.35,85.29,680.79,86.59Z"/><path class="cls-15" d="M499.64,88.17s-4.1,12.18,4.19,20.35a29.56,29.56,0,0,0,19,8.18S520.33,86.17,499.64,88.17Z"/><path class="cls-16" d="M522.8,116.27c-17-14.53-22-25.15-23.14-28.1C518.88,86.33,522.4,112.59,522.8,116.27Z"/><path class="cls-15" d="M490.25,137s-16.54,6.78-17.59,22.92,8.4,14.72,8.4,14.72S511.17,156.92,490.25,137Z"/><path class="cls-16" d="M481.47,174.2c-.17-31.07,6.73-33.29,8.79-37.19C509.69,155.54,485,170.43,481.47,174.2Z"/><path class="cls-15" d="M494.57,128.84s-2.11,17.75,11.5,26.51a41.19,41.19,0,0,0,28.21,5.7S522.15,120.22,494.57,128.84Z"/><path class="cls-16" d="M534.1,160.48c-27.25-14.94-37.1-27.95-39.51-31.65C520.23,120.85,532.51,155.58,534.1,160.48Z"/><path class="cls-15" d="M492.19,128.06s-8.8,15.56-25,14.56a41.21,41.21,0,0,1-26.11-12.1S475.06,104.79,492.19,128.06Z"/><path class="cls-16" d="M441.6,130.16c30.8,4.09,46.45-.57,50.58-2.12C476.24,106.43,445.78,127.16,441.6,130.16Z"/><path class="cls-15" d="M502.49,103.88s-7,12.41-19.9,11.61a32.82,32.82,0,0,1-20.83-9.65S488.83,85.32,502.49,103.88Z"/><path class="cls-16" d="M462.15,105.56c24.56,3.26,37-.46,40.33-1.69C489.77,86.63,465.48,103.16,462.15,105.56Z"/><path class="cls-15" d="M500.28,110.5s2.18,14.6,14.92,18.61a34,34,0,0,0,23.71-1.6S520.36,97.64,500.28,110.5Z"/><path class="cls-16" d="M538.64,127.1c-24.95-6-35.63-14.19-38.35-16.61C519,98.55,536.31,123.54,538.64,127.1Z"/><path class="cls-15" d="M692.83,518.71s15.06,4,24.28-6.68a35.92,35.92,0,0,0,8.37-23.64S688.77,493.87,692.83,518.71Z"/><path class="cls-16" d="M725,488.47c-16.21,21.69-28.65,28.59-32.13,30.22C689.07,495.6,720.54,489.25,725,488.47Z"/><path class="cls-15" d="M685.54,522.1s10.8-11.22,6-24.46a35.88,35.88,0,0,0-16.6-18.8S661.85,513.59,685.54,522.1Z"/><path class="cls-16" d="M674.71,479.34c11.08,24.7,11.08,38.92,10.82,42.76C663.51,514.17,673.24,483.58,674.71,479.34Z"/><path class="cls-15" d="M686.79,523.9s14.3-6.18,25,3A35.88,35.88,0,0,1,723.57,549S686.46,549.07,686.79,523.9Z"/><path class="cls-16" d="M723.05,549c-19.26-19-32.58-24-36.26-25.11C686.5,547.31,718.56,548.92,723.05,549Z"/><path class="cls-15" d="M670.89,538.9s11.41-4.93,19.94,2.4a28.63,28.63,0,0,1,9.4,17.66S670.63,559,670.89,538.9Z"/><path class="cls-16" d="M699.81,559c-15.35-15.18-26-19.16-28.92-20C670.66,557.58,696.24,558.86,699.81,559Z"/><path class="cls-15" d="M641.18,539.32s4.21-11.69,15.39-12.89a28.64,28.64,0,0,1,19.31,5.25S655.63,553.26,641.18,539.32Z"/><path class="cls-16" d="M675.59,532c-21.58.79-31.76,5.8-34.4,7.35C654.63,552.27,673.08,534.52,675.59,532Z"/><path class="cls-15" d="M644.33,518.54s-9.8-7.64-7.47-18.64a28.57,28.57,0,0,1,11-16.72S662.07,509.12,644.33,518.54Z"/><path class="cls-15" d="M638.77,531.14s-12.38-1.13-16.36-11.65a28.62,28.62,0,0,1,.21-20S648.61,513.64,638.77,531.14Z"/><path class="cls-16" d="M623,499.69c6.21,20.69,13.63,29.27,15.79,31.44C647.91,514.86,626.08,501.48,623,499.69Z"/><path class="cls-15" d="M627.93,549.12s6.16-11.29-.59-20.78A29.62,29.62,0,0,0,610,517S607.21,547.49,627.93,549.12Z"/><path class="cls-16" d="M610,517.42c14.2,17.26,17.3,28.58,17.92,31.69C608.66,547.59,609.75,521.11,610,517.42Z"/><path class="cls-15" d="M645.65,502.66s17.47-3.8,21.3-19.52a41.2,41.2,0,0,0-3.82-28.53S628.5,479.4,645.65,502.66Z"/><path class="cls-16" d="M662.65,455c-5.22,30.63-14.31,44.19-17,47.67C629.72,481,658.54,458.07,662.65,455Z"/><path class="cls-15" d="M640,509.94s5.15-17.12-6.73-28.1a41.18,41.18,0,0,0-26.79-10.51S611.32,513.64,640,509.94Z"/><path class="cls-16" d="M606.54,471.92c24.24,19.44,31.68,34,33.41,38C613.32,513.36,607.25,477,606.54,471.92Z"/><path class="cls-15" d="M642.19,511.12s11.37-13.79,27.1-10a41.17,41.17,0,0,1,23.62,16.45S655,537,642.19,511.12Z"/><path class="cls-16" d="M692.37,517.82c-29.62-9.37-45.84-7.49-50.17-6.68C654.14,535.19,687.74,520.06,692.37,517.82Z"/><path class="cls-15" d="M627.85,533.15s9.06-11,21.61-8a32.85,32.85,0,0,1,18.84,13.12S638.08,553.79,627.85,533.15Z"/><path class="cls-16" d="M667.87,538.49c-23.63-7.47-36.56-6-40-5.33C637.38,552.34,664.17,540.27,667.87,538.49Z"/><path class="cls-15" d="M631.18,527s.38-14.75-11.47-20.92a34,34,0,0,0-23.63-2.54S609.16,536.19,631.18,527Z"/><path class="cls-16" d="M596.27,504c23.54,10.2,32.63,20.15,34.89,23C610.69,535.53,598,507.91,596.27,504Z"/></g></g></svg>